<svg xmlns="http://www.w3.org/2000/svg" width="48" height="48" viewBox="0 0 48 48">
    <defs>
        <linearGradient id="mcradfwgta" x1="0%" x2="100%" y1="0%" y2="100%">
            <stop offset="0%" stop-color="#4B4B4B"/>
            <stop offset="100%" stop-color="#515151"/>
        </linearGradient>
    </defs>
    <g fill="none" fill-rule="evenodd">
        <g>
            <g>
                <g fill="url(#mcradfwgta)" transform="translate(-690 -1728) translate(690 1728)">
                    <path d="M16 0h16c8.837 0 16 7.163 16 16v16c0 8.837-7.163 16-16 16H16C7.163 48 0 40.837 0 32V16C0 7.163 7.163 0 16 0z"/>
                </g>
                <g>
                    <path fill="#FFF" d="M12.833 24.436c-2.025-.224-3.876-1.024-5.387-2.232l-2.52 2.52-1.65-1.65 2.52-2.52c-1.208-1.51-2.008-3.362-2.232-5.387H0v-2.334h3.564c.224-2.025 1.024-3.876 2.232-5.387l-2.52-2.52 1.65-1.65 2.52 2.52c1.51-1.208 3.362-2.008 5.387-2.232V0h2.334v3.564c2.025.224 3.876 1.024 5.387 2.232l2.52-2.52 1.65 1.65-2.52 2.52c1.208 1.51 2.008 3.362 2.232 5.387H28v2.334h-3.564c-.224 2.025-1.024 3.876-2.232 5.387l2.52 2.52-1.65 1.65-2.52-2.52c-1.51 1.208-3.362 2.008-5.387 2.232V28h-2.334v-3.564zm6.942-4.661c1.478-1.478 2.392-3.52 2.392-5.775 0-2.255-.914-4.297-2.392-5.775-1.478-1.478-3.52-2.392-5.775-2.392-4.51 0-8.167 3.657-8.167 8.167S9.49 22.167 14 22.167c2.255 0 4.297-.914 5.775-2.392zM14 16.333c1.289 0 2.333-1.044 2.333-2.333 0-1.289-1.044-2.333-2.333-2.333-1.289 0-2.333 1.044-2.333 2.333 0 1.289 1.044 2.333 2.333 2.333zm0 2.334c-2.577 0-4.667-2.09-4.667-4.667S11.423 9.333 14 9.333s4.667 2.09 4.667 4.667-2.09 4.667-4.667 4.667z" transform="translate(-690 -1728) translate(690 1728) translate(10 10)"/>
                </g>
            </g>
        </g>
    </g>
</svg>
