<svg xmlns="http://www.w3.org/2000/svg" width="48" height="48" viewBox="0 0 48 48">
    <defs>
        <linearGradient id="a" x1="27.743%" y1="27.743%" y2="100%">
            <stop offset="0%" stop-color="#18B094"/>
            <stop offset="100%" stop-color="#007EFF"/>
        </linearGradient>
    </defs>
    <g fill="none" fill-rule="evenodd">
        <path fill="url(#a)" d="M16 0h16c8.837 0 16 7.163 16 16v16c0 8.837-7.163 16-16 16H16C7.163 48 0 40.837 0 32V16C0 7.163 7.163 0 16 0z"/>
        <path fill="#FFF" fill-rule="nonzero" d="M24 37c7.18 0 13-5.82 13-13s-5.82-13-13-13-13 5.82-13 13 5.82 13 13 13zm0 2c-8.284 0-15-6.716-15-15 0-8.284 6.716-15 15-15 8.284 0 15 6.716 15 15 0 8.284-6.716 15-15 15z"/>
        <path fill="#FFF" fill-rule="nonzero" d="M34.774 13.563a15.083 15.083 0 0 0-1.916-1.67c4.593-.957 8.119-.488 9.329 1.607C44.396 17.326 38.044 25.13 28 30.928c-10.044 5.8-19.977 7.398-22.187 3.572-1.21-2.095.148-5.383 3.273-8.881.092.856.256 1.69.486 2.497-1.864 2.332-2.646 4.311-2.026 5.384 1.393 2.414 10.304.979 19.454-4.304S41.848 16.914 40.454 14.5c-.62-1.073-2.726-1.386-5.68-.937z"/>
    </g>
</svg>
