<svg width="48" height="48" viewBox="0 0 48 48" xmlns="http://www.w3.org/2000/svg">
    <defs>
        <linearGradient x1="0%" y1="0%" x2="100%" y2="100%" id="d2dq21qioa">
            <stop stop-color="#0CE6A2" offset="0%"/>
            <stop stop-color="#3C34EF" offset="100%"/>
        </linearGradient>
        <linearGradient x1="0%" y1="27.186%" x2="100%" y2="72.814%" id="qbjmwqbh5b">
            <stop stop-color="#FFD601" offset="0%"/>
            <stop stop-color="#32D52B" offset="100%"/>
        </linearGradient>
    </defs>
    <g fill="none" fill-rule="evenodd">
        <path d="M14 0h20c7.732 0 14 6.268 14 14v20c0 7.732-6.268 14-14 14H14C6.268 48 0 41.732 0 34V14C0 6.268 6.268 0 14 0z" fill="#FFF"/>
        <path d="M24 39c-8.284 0-15-6.716-15-15 0-8.284 6.716-15 15-15 8.284 0 15 6.716 15 15 0 8.284-6.716 15-15 15z" fill="url(#d2dq21qioa)"/>
        <path d="M34.774 13.563a15.083 15.083 0 0 0-1.916-1.67c4.593-.957 8.119-.488 9.329 1.607C44.396 17.326 38.044 25.13 28 30.928c-10.044 5.8-19.977 7.398-22.187 3.572-1.21-2.095.148-5.383 3.273-8.881.092.856.256 1.69.486 2.497-1.864 2.332-2.646 4.311-2.026 5.384 1.393 2.414 10.304.979 19.454-4.304S41.848 16.914 40.454 14.5c-.62-1.073-2.726-1.386-5.68-.937z" fill="url(#qbjmwqbh5b)"/>
    </g>
</svg>
