<svg xmlns="http://www.w3.org/2000/svg" width="24" height="24" viewBox="0 0 24 24">
    <g fill="none" fill-rule="evenodd">
        <path fill="#FFF" d="M11 20.945c-1.736-.192-3.323-.877-4.618-1.913l-2.16 2.16-1.414-1.414 2.16-2.16C3.932 16.323 3.247 14.736 3.055 13H0v-2h3.055c.192-1.736.877-3.323 1.913-4.618l-2.16-2.16 1.414-1.414 2.16 2.16C7.677 3.932 9.264 3.247 11 3.055V0h2v3.055c1.736.192 3.323.877 4.618 1.913l2.16-2.16 1.414 1.414-2.16 2.16c1.036 1.295 1.721 2.882 1.913 4.618H24v2h-3.055c-.192 1.736-.877 3.323-1.913 4.618l2.16 2.16-1.414 1.414-2.16-2.16c-1.295 1.036-2.882 1.721-4.618 1.913V24h-2v-3.055zm5.95-3.995C18.216 15.683 19 13.933 19 12c0-1.933-.784-3.683-2.05-4.95C15.683 5.784 13.933 5 12 5c-3.866 0-7 3.134-7 7s3.134 7 7 7c1.933 0 3.683-.784 4.95-2.05zM12 14c1.105 0 2-.895 2-2s-.895-2-2-2-2 .895-2 2 .895 2 2 2zm0 2c-2.21 0-4-1.79-4-4s1.79-4 4-4 4 1.79 4 4-1.79 4-4 4z"/>
    </g>
</svg>
