<svg xmlns="http://www.w3.org/2000/svg" width="24" height="24" viewBox="0 0 24 24">
    <g fill="none" fill-rule="evenodd">
        <g>
            <path fill="#FFF" d="M7.828 12.414l2.122-2.121c.39-.39 1.023-.39 1.414 0 .39.39.39 1.024 0 1.414l-2.121 2.121 2.121 2.122c.39.39.39 1.023 0 1.414-.39.39-1.024.39-1.414 0l-2.122-2.121-2.12 2.121c-.391.39-1.025.39-1.415 0-.39-.39-.39-1.024 0-1.414l2.121-2.122-2.121-2.12c-.39-.391-.39-1.025 0-1.415.39-.39 1.024-.39 1.414 0l2.121 2.121z" transform="translate(5 4) translate(5)"/>
        </g>
        <path fill="#FFF" d="M8 10v1H0V0h11v9h-1V6H7v2H4V6H1v4h7zM6 1v2H5V1H4v2H3V1H1v4h9V1H8v2H7V1H6zm0 4H5v2h1V5z" transform="translate(5 4)"/>
    </g>
</svg>
