<svg width="48" height="48" viewBox="0 0 48 48" xmlns="http://www.w3.org/2000/svg">
    <defs>
        <linearGradient x1="2.247%" y1="0%" x2="97.753%" y2="100%" id="xlpohmtv2a">
            <stop stop-color="#F540B7" offset="0%"/>
            <stop stop-color="#783BFE" offset="100%"/>
        </linearGradient>
    </defs>
    <g fill="none" fill-rule="evenodd">
        <path d="M14 0h20c7.732 0 14 6.268 14 14v20c0 7.732-6.268 14-14 14H14C6.268 48 0 41.732 0 34V14C0 6.268 6.268 0 14 0z" fill="#FFF"/>
        <path d="M26.854 26.803A4 4 0 1 1 23 20.126V16h2v4.126a4.002 4.002 0 0 1 2.855 4.945l5.414 3.126A4.002 4.002 0 0 1 39.59 33a4 4 0 0 1-7.32-3.071l-5.415-3.126zm-12.123 1.394 3.573-2.063 1 1.732-3.573 2.063A4.002 4.002 0 0 1 8.41 33a4 4 0 0 1 6.32-4.803zM24 26a2 2 0 1 0 0-4 2 2 0 0 0 0 4zm0-14a2 2 0 1 0 0-4 2 2 0 0 0 0 4zm0 2a4 4 0 1 1 0-8 4 4 0 0 1 0 8zM10.144 32a2 2 0 1 0 3.464-2 2 2 0 0 0-3.464 2zm24.248-2a2 2 0 1 0 3.464 2 2 2 0 0 0-3.464-2zm-3.077 4.748c.43.537.95.999 1.539 1.362A14.933 14.933 0 0 1 24 39a14.933 14.933 0 0 1-8.854-2.89 6.031 6.031 0 0 0 1.54-1.362A12.94 12.94 0 0 0 24 37c2.712 0 5.23-.83 7.315-2.252zm5.641-9.672c.03-.355.044-.714.044-1.076 0-5.189-3.04-9.667-7.435-11.752a5.974 5.974 0 0 0 .43-2.002C35.295 12.56 39 17.847 39 24c0 .59-.034 1.173-.1 1.746a5.96 5.96 0 0 0-1.944-.67zm-18.52-12.828C14.04 14.333 11 18.81 11 24c0 .362.015.721.044 1.076a5.96 5.96 0 0 0-1.943.67C9.034 25.173 9 24.59 9 24c0-6.153 3.705-11.44 9.005-13.754.028.705.179 1.38.43 2.002z" fill="url(#xlpohmtv2a)" fill-rule="nonzero"/>
    </g>
</svg>
