<svg xmlns="http://www.w3.org/2000/svg" width="48" height="48" viewBox="0 0 48 48">
    <defs>
        <linearGradient id="q3cunx86ba" x1="0%" x2="101.86%" y1="0%" y2="100.861%">
            <stop offset="0%" stop-color="#3023AE"/>
            <stop offset="99.954%" stop-color="#47C292"/>
        </linearGradient>
    </defs>
    <g fill="none" fill-rule="evenodd">
        <g>
            <g>
                <path fill="url(#q3cunx86ba)" d="M16 0h16c8.837 0 16 7.163 16 16v16c0 8.837-7.163 16-16 16H16C7.163 48 0 40.837 0 32V16C0 7.163 7.163 0 16 0z" transform="translate(-100 -1590) translate(100 1590)"/>
                <path fill="#FFF" fill-rule="nonzero" d="M26.854 26.803C26.128 27.542 25.118 28 24 28c-2.21 0-4-1.79-4-4 0-1.864 1.275-3.43 3-3.874V16h2v4.126c1.725.444 3 2.01 3 3.874 0 .371-.05.73-.145 1.071l5.414 3.126c1.248-1.272 3.241-1.593 4.855-.661 1.914 1.104 2.569 3.55 1.464 5.464-1.104 1.913-3.55 2.569-5.464 1.464-1.614-.932-2.333-2.819-1.855-4.535l-5.415-3.126zm-12.123 1.394l3.573-2.063 1 1.732-3.573 2.063c.478 1.716-.241 3.603-1.855 4.535-1.914 1.105-4.36.45-5.464-1.464-1.105-1.913-.45-4.36 1.464-5.464 1.614-.932 3.607-.611 4.855.661zM24 26c1.105 0 2-.895 2-2s-.895-2-2-2-2 .895-2 2 .895 2 2 2zm0-14c1.105 0 2-.895 2-2s-.895-2-2-2-2 .895-2 2 .895 2 2 2zm0 2c-2.21 0-4-1.79-4-4s1.79-4 4-4 4 1.79 4 4-1.79 4-4 4zM10.144 32c.552.957 1.775 1.284 2.732.732.956-.552 1.284-1.775.732-2.732-.553-.957-1.776-1.284-2.732-.732-.957.552-1.285 1.775-.732 2.732zm24.248-2c-.552.957-.224 2.18.732 2.732.957.552 2.18.225 2.732-.732.553-.957.225-2.18-.732-2.732-.956-.552-2.18-.225-2.732.732zm-3.077 4.748c.43.537.95.999 1.539 1.362C30.372 37.927 27.31 39 24 39c-3.311 0-6.372-1.073-8.854-2.89.588-.363 1.11-.825 1.54-1.362C18.768 36.17 21.287 37 24 37c2.712 0 5.23-.83 7.315-2.252zm5.641-9.672c.03-.355.044-.714.044-1.076 0-5.189-3.04-9.667-7.435-11.752.251-.622.402-1.297.43-2.002C35.295 12.56 39 17.847 39 24c0 .59-.034 1.173-.1 1.746-.594-.328-1.249-.559-1.944-.67zm-18.52-12.828C14.04 14.333 11 18.81 11 24c0 .362.015.721.044 1.076-.695.111-1.35.342-1.943.67C9.034 25.173 9 24.59 9 24c0-6.153 3.705-11.44 9.005-13.754.028.705.179 1.38.43 2.002z" transform="translate(-100 -1590) translate(100 1590)"/>
            </g>
        </g>
    </g>
</svg>
