<svg xmlns="http://www.w3.org/2000/svg" width="24" height="24" viewBox="0 0 24 24">
    <g fill="#FFF" fill-rule="evenodd">
        <path d="M8.464 15.464A4.984 4.984 0 0 1 12 14c1.38 0 2.63.56 3.536 1.464L12 19l-3.536-3.536z"/>
        <path d="M7.757 14.757l-2.121-2.121A8.972 8.972 0 0 1 12 10a8.972 8.972 0 0 1 6.364 2.636l-2.121 2.121A5.981 5.981 0 0 0 12 13a5.981 5.981 0 0 0-4.243 1.757z"/>
        <path d="M4.929 11.929L3 10c4.97-4.97 13.03-4.97 18 0l-1.929 1.929A9.969 9.969 0 0 0 12 9a9.969 9.969 0 0 0-7.071 2.929z"/>
    </g>
</svg>
