<?xml version="1.0" encoding="UTF-8"?>
<svg width="900px" height="496px" viewBox="0 0 900 496" version="1.1" xmlns="http://www.w3.org/2000/svg" xmlns:xlink="http://www.w3.org/1999/xlink">
    <title>Hancom_Info_Information@svg</title>
    <defs>
        <rect id="path-1" x="691" y="75" width="48" height="48"></rect>
    </defs>
    <g id="Hancom_Info_Information" stroke="none" stroke-width="1" fill="none" fill-rule="evenodd">
        <g id="Hancom_Info_01">
            <rect id="Rectangle-Copy" fill="#FFFFFF" x="0" y="0" width="900" height="496"></rect>
            <path d="M62.48,113.528 L62.48,105.912 L61.632,105.912 L61.632,109.432 L58.336,109.432 C58.128,107.72 56.704,106.6 54.752,106.6 C52.64,106.6 51.152,107.896 51.152,109.832 C51.152,111.752 52.64,113.064 54.752,113.064 C56.736,113.064 58.16,111.912 58.336,110.168 L61.632,110.168 L61.632,113.528 L62.48,113.528 Z M54.752,112.344 C53.136,112.344 51.968,111.256 51.968,109.832 C51.968,108.376 53.136,107.32 54.752,107.32 C56.368,107.32 57.536,108.376 57.536,109.832 C57.536,111.256 56.368,112.344 54.752,112.344 Z M62.48,119.896 L62.48,114.28 L61.632,114.28 L61.632,116.344 L54.448,116.344 L54.448,114.28 L53.6,114.28 L53.6,119.896 L62.48,119.896 Z M61.632,119.192 L54.448,119.192 L54.448,117.048 L61.632,117.048 L61.632,119.192 Z M76.784,112.168 L76.784,106.744 L67.344,106.744 L67.344,112.168 L76.784,112.168 Z M75.952,111.464 L68.176,111.464 L68.176,107.448 L75.952,107.448 L75.952,111.464 Z M72.448,120.104 L72.448,115.064 L78.512,115.064 L78.512,114.344 L65.6,114.344 L65.6,115.064 L71.6,115.064 L71.6,120.104 L72.448,120.104 Z M92.464,108.12 L92.464,107.448 L88.768,107.448 L88.768,105.864 L87.92,105.864 L87.92,107.448 L84.224,107.448 L84.224,108.12 L92.464,108.12 Z M94.752,117.032 L94.752,111.768 L97.008,111.768 L97.008,111.048 L94.752,111.048 L94.752,105.912 L93.904,105.912 L93.904,117.032 L94.752,117.032 Z M84,115.24 C86.496,115.224 89.952,115.176 92.992,114.632 L92.928,114.008 C91.616,114.2 90.176,114.328 88.768,114.392 L88.768,113.192 C90.464,113.08 91.552,112.28 91.552,111.016 C91.552,109.672 90.272,108.856 88.336,108.856 C86.384,108.856 85.104,109.672 85.104,111.016 C85.104,112.296 86.208,113.08 87.92,113.192 L87.92,114.44 C86.464,114.488 85.056,114.504 83.872,114.504 L84,115.24 Z M88.336,112.568 C86.88,112.568 85.904,111.944 85.904,111.016 C85.904,110.104 86.88,109.496 88.336,109.496 C89.792,109.496 90.768,110.104 90.768,111.016 C90.768,111.944 89.792,112.568 88.336,112.568 Z M95.28,119.768 L95.28,119.048 L86.912,119.048 L86.912,116.296 L86.064,116.296 L86.064,119.768 L95.28,119.768 Z M110.192,114.616 L110.192,105.928 L109.344,105.928 L109.344,108.744 L105.68,108.744 C105.824,108.216 105.904,107.64 105.904,107.048 L99.552,107.048 L99.552,107.752 L104.992,107.752 C104.768,110.536 102.32,112.648 98.848,113.736 L99.232,114.44 C102.208,113.496 104.48,111.784 105.424,109.464 L109.344,109.464 L109.344,111.72 L105.248,111.72 L105.248,112.44 L109.344,112.44 L109.344,114.616 L110.192,114.616 Z M105.632,120.056 C108.48,120.056 110.256,119.08 110.256,117.4 C110.256,115.752 108.48,114.776 105.632,114.776 C102.752,114.776 100.976,115.752 100.976,117.4 C100.976,119.08 102.752,120.056 105.632,120.056 Z M105.632,119.368 C103.312,119.368 101.808,118.6 101.808,117.4 C101.808,116.216 103.312,115.464 105.632,115.464 C107.92,115.464 109.44,116.216 109.44,117.4 C109.44,118.6 107.92,119.368 105.632,119.368 Z M124.864,120.12 L124.864,105.912 L124.016,105.912 L124.016,120.12 L124.864,120.12 Z M117.472,116.824 C119.536,116.824 120.992,114.92 120.992,111.944 C120.992,108.984 119.536,107.064 117.472,107.064 C115.392,107.064 113.936,108.984 113.936,111.944 C113.936,114.92 115.392,116.824 117.472,116.824 Z M117.472,116.088 C115.872,116.088 114.752,114.376 114.752,111.944 C114.752,109.512 115.872,107.816 117.472,107.816 C119.056,107.816 120.176,109.512 120.176,111.944 C120.176,114.376 119.056,116.088 117.472,116.088 Z M144.448,112.632 L144.448,111.912 L142.384,111.912 C142.736,110.088 142.736,108.76 142.736,107.656 L142.736,106.68 L133.28,106.68 L133.28,107.4 L141.92,107.4 L141.92,107.656 C141.92,108.088 141.92,108.568 141.888,109.08 L132.96,109.432 L133.088,110.12 L141.856,109.736 C141.792,110.376 141.696,111.08 141.504,111.912 L131.616,111.912 L131.616,112.632 L144.448,112.632 Z M143.376,119.896 L143.376,119.192 L134.048,119.192 L134.048,117.336 L142.864,117.336 L142.864,114.28 L133.168,114.28 L133.168,114.984 L142.032,114.984 L142.032,116.648 L133.216,116.648 L133.216,119.896 L143.376,119.896 Z M157.136,120.136 L157.136,112.456 L159.632,112.456 L159.632,111.736 L157.136,111.736 L157.136,105.912 L156.288,105.912 L156.288,120.136 L157.136,120.136 Z M148,116.616 C150.864,116.616 152.704,116.504 154.96,116.088 L154.88,115.352 C152.672,115.784 150.816,115.896 148,115.896 L147.744,115.896 L147.744,112.136 L153.216,112.136 L153.216,107.288 L146.864,107.288 L146.864,108.024 L152.384,108.024 L152.384,111.4 L146.912,111.4 L146.912,116.616 L148,116.616 Z M167.456,112.664 C170.384,112.664 172.336,111.464 172.336,109.576 C172.336,107.704 170.384,106.52 167.456,106.52 C164.544,106.52 162.592,107.704 162.592,109.576 C162.592,111.464 164.544,112.664 167.456,112.664 Z M167.456,111.96 C165.104,111.96 163.456,110.984 163.456,109.576 C163.456,108.184 165.104,107.224 167.456,107.224 C169.824,107.224 171.472,108.184 171.472,109.576 C171.472,110.984 169.824,111.96 167.456,111.96 Z M167.872,120.104 L167.872,114.872 L173.936,114.872 L173.936,114.152 L161.04,114.152 L161.04,114.872 L167.024,114.872 L167.024,120.104 L167.872,120.104 Z M187.088,113.608 L187.088,112.888 L178.32,112.888 L178.32,108.024 L186.944,108.024 L186.944,107.304 L177.488,107.304 L177.488,113.608 L187.088,113.608 Z M188.656,118.056 L188.656,117.336 L175.76,117.336 L175.76,118.056 L188.656,118.056 Z M205.6,120.12 L205.6,105.912 L204.752,105.912 L204.752,120.12 L205.6,120.12 Z M194.768,117.32 C199.344,115.064 201.44,111.448 201.44,107.48 L194.912,107.48 L194.912,108.2 L200.592,108.2 C200.368,111.704 198.208,114.728 194.304,116.616 L194.768,117.32 Z M219.712,116.328 L219.712,111.112 L221.936,111.112 L221.936,110.392 L219.712,110.392 L219.712,105.912 L218.864,105.912 L218.864,116.328 L219.712,116.328 Z M215.888,113.864 L215.888,106.936 L215.056,106.936 L215.056,109.512 L210.304,109.512 L210.304,106.936 L209.456,106.936 L209.456,113.864 L215.888,113.864 Z M215.056,113.144 L210.304,113.144 L210.304,110.216 L215.056,110.216 L215.056,113.144 Z M220.416,119.768 L220.416,119.048 L211.888,119.048 L211.888,115.352 L211.04,115.352 L211.04,119.768 L220.416,119.768 Z M229.888,114.536 C232.816,114.536 234.976,113.032 234.976,110.728 C234.976,108.44 232.816,106.92 229.888,106.92 C226.96,106.92 224.816,108.44 224.816,110.728 C224.816,113.032 226.96,114.536 229.888,114.536 Z M229.888,113.848 C227.456,113.848 225.6,112.552 225.6,110.728 C225.6,108.92 227.456,107.624 229.888,107.624 C232.336,107.624 234.192,108.92 234.192,110.728 C234.192,112.552 232.336,113.848 229.888,113.848 Z M236.368,118.136 L236.368,117.416 L223.472,117.416 L223.472,118.136 L236.368,118.136 Z M251.104,118.264 L251.104,117.528 L245.04,117.528 L245.04,114.536 L249.744,114.536 L249.744,113.816 L240.72,113.816 L240.72,111.08 L249.408,111.08 L249.408,107.048 L239.84,107.048 L239.84,107.752 L248.576,107.752 L248.576,110.376 L239.888,110.376 L239.888,114.536 L244.192,114.536 L244.192,117.528 L238.192,117.528 L238.192,118.264 L251.104,118.264 Z M268.048,116.456 L268.048,105.912 L267.2,105.912 L267.2,108.648 L263.472,108.648 L263.472,106.856 L262.64,106.856 L262.64,109.576 L258.096,109.576 L258.096,106.856 L257.248,106.856 L257.248,113.912 L263.472,113.912 L263.472,112.44 L267.2,112.44 L267.2,116.456 L268.048,116.456 Z M267.2,111.736 L263.472,111.736 L263.472,109.368 L267.2,109.368 L267.2,111.736 Z M262.64,113.192 L258.096,113.192 L258.096,110.28 L262.64,110.28 L262.64,113.192 Z M268.4,119.768 L268.4,119.048 L259.936,119.048 L259.936,115.432 L259.088,115.432 L259.088,119.768 L268.4,119.768 Z M279.824,108.44 L279.824,107.72 L275.968,107.72 L275.968,105.896 L275.12,105.896 L275.12,107.72 L271.264,107.72 L271.264,108.44 L279.824,108.44 Z M281.952,120.104 L281.952,112.84 L284.416,112.84 L284.416,112.104 L281.952,112.104 L281.952,105.912 L281.104,105.912 L281.104,120.104 L281.952,120.104 Z M280.224,116.632 L280.16,115.976 C278.832,116.184 277.392,116.28 275.968,116.36 L275.968,114.616 C277.696,114.472 278.832,113.512 278.832,112.04 C278.832,110.44 277.504,109.432 275.552,109.432 C273.584,109.432 272.288,110.44 272.288,112.04 C272.288,113.512 273.408,114.472 275.12,114.616 L275.12,116.392 C273.648,116.456 272.24,116.456 271.024,116.456 L271.184,117.192 C273.712,117.192 277.104,117.16 280.224,116.632 Z M275.552,113.96 C274.064,113.96 273.072,113.16 273.072,112.04 C273.072,110.904 274.064,110.12 275.552,110.12 C277.024,110.12 278.032,110.904 278.032,112.04 C278.032,113.16 277.024,113.96 275.552,113.96 Z M294.384,108.248 L294.384,107.528 L290.608,107.528 L290.608,105.768 L289.76,105.768 L289.76,107.528 L285.968,107.528 L285.968,108.248 L294.384,108.248 Z M296.864,114.456 L296.864,110.568 L299.088,110.568 L299.088,109.832 L296.864,109.832 L296.864,105.896 L296.016,105.896 L296.016,114.456 L296.864,114.456 Z M290.176,114.168 C292.192,114.168 293.52,113.208 293.52,111.64 C293.52,110.104 292.192,109.144 290.176,109.144 C288.144,109.144 286.816,110.104 286.816,111.656 C286.816,113.208 288.144,114.168 290.176,114.168 Z M290.176,113.496 C288.656,113.496 287.616,112.744 287.616,111.64 C287.616,110.568 288.64,109.816 290.176,109.816 C291.696,109.816 292.72,110.568 292.72,111.656 C292.72,112.744 291.696,113.496 290.176,113.496 Z M296.864,119.896 L296.864,115.368 L288.112,115.368 L288.112,119.896 L296.864,119.896 Z M296.016,119.176 L288.944,119.176 L288.944,116.072 L296.016,116.072 L296.016,119.176 Z M312.64,120.12 L312.64,105.896 L311.824,105.896 L311.824,120.12 L312.64,120.12 Z M309.856,119.352 L309.856,106.248 L309.04,106.248 L309.04,111.608 L306.848,111.608 C306.736,108.904 305.584,107.192 303.84,107.192 C302.032,107.192 300.848,109.064 300.848,112.008 C300.848,114.952 302.032,116.824 303.84,116.824 C305.6,116.824 306.752,115.096 306.848,112.328 L309.04,112.328 L309.04,119.352 L309.856,119.352 Z M303.84,116.056 C302.528,116.056 301.632,114.392 301.632,112.008 C301.632,109.64 302.528,107.96 303.84,107.96 C305.168,107.96 306.048,109.64 306.048,112.008 C306.048,114.392 305.168,116.056 303.84,116.056 Z M329.904,120.12 L329.904,112.376 L332.176,112.376 L332.176,111.656 L329.904,111.656 L329.904,105.896 L329.056,105.896 L329.056,120.12 L329.904,120.12 Z M323.248,115.912 L323.152,115.192 C321.984,115.464 320.912,115.512 320.24,115.528 L320.24,108.168 L322.96,108.168 L322.96,107.448 L319.408,107.448 L319.408,116.248 L319.984,116.248 C320.672,116.248 321.824,116.232 323.248,115.912 Z M324.448,116.248 C325.76,116.248 326.864,116.2 328.24,115.88 L328.128,115.16 C326.896,115.464 325.808,115.528 324.64,115.528 L324.64,108.168 L327.536,108.168 L327.536,107.448 L323.808,107.448 L323.808,116.248 L324.448,116.248 Z M344.432,120.136 L344.432,112.456 L346.928,112.456 L346.928,111.736 L344.432,111.736 L344.432,105.912 L343.584,105.912 L343.584,120.136 L344.432,120.136 Z M335.296,116.616 C338.16,116.616 340,116.504 342.256,116.088 L342.176,115.352 C339.968,115.784 338.112,115.896 335.296,115.896 L335.04,115.896 L335.04,112.136 L340.512,112.136 L340.512,107.288 L334.16,107.288 L334.16,108.024 L339.68,108.024 L339.68,111.4 L334.208,111.4 L334.208,116.616 L335.296,116.616 Z M363.456,113.32 L363.456,105.912 L362.608,105.912 L362.608,113.32 L363.456,113.32 Z M352.256,112.696 C354.768,112.696 358.144,112.568 360.976,112.168 L360.928,111.512 C360.176,111.608 359.392,111.688 358.576,111.736 L358.576,107.64 L360.16,107.64 L360.16,106.92 L352.544,106.92 L352.544,107.64 L354.128,107.64 L354.128,111.928 C353.44,111.944 352.768,111.96 352.144,111.96 L352.256,112.696 Z M354.96,111.912 L354.96,107.64 L357.744,107.64 L357.744,111.784 C356.816,111.848 355.856,111.88 354.96,111.912 Z M364.064,119.912 L364.064,119.208 L355.296,119.208 L355.296,117.256 L363.456,117.256 L363.456,114.088 L354.416,114.088 L354.416,114.792 L362.624,114.792 L362.624,116.584 L354.448,116.584 L354.448,119.912 L364.064,119.912 Z M378.352,112.232 L378.704,111.528 C376.576,111.176 373.488,109.512 373.488,107.336 L373.488,106.456 L372.608,106.456 L372.608,107.336 C372.608,109.576 369.552,111.176 367.376,111.528 L367.744,112.232 C369.744,111.848 372.208,110.616 373.056,108.728 C373.904,110.584 376.384,111.848 378.352,112.232 Z M373.44,120.104 L373.44,114.792 L379.456,114.792 L379.472,114.072 L366.608,114.072 L366.608,114.792 L372.592,114.792 L372.592,120.104 L373.44,120.104 Z M396.448,120.12 L396.448,105.912 L395.6,105.912 L395.6,120.12 L396.448,120.12 Z M385.616,117.32 C390.192,115.064 392.288,111.448 392.288,107.48 L385.76,107.48 L385.76,108.2 L391.44,108.2 C391.216,111.704 389.056,114.728 385.152,116.616 L385.616,117.32 Z M410.976,110.824 L410.976,110.104 L402.288,110.104 L402.288,106.232 L401.44,106.232 L401.44,110.824 L410.976,110.824 Z M412.464,113.464 L412.464,112.744 L399.632,112.744 L399.632,113.464 L412.464,113.464 Z M406.032,120.056 C409.04,120.056 410.864,119.144 410.864,117.496 C410.864,115.864 409.056,114.936 406.032,114.936 C403.024,114.936 401.2,115.864 401.2,117.496 C401.2,119.144 403.024,120.056 406.032,120.056 Z M406.032,119.352 C403.6,119.352 402.048,118.648 402.048,117.496 C402.048,116.344 403.6,115.64 406.032,115.64 C408.464,115.64 410.016,116.344 410.016,117.496 C410.016,118.648 408.464,119.352 406.032,119.352 Z M420.752,111.144 C423.84,111.144 425.664,110.264 425.664,108.648 C425.664,107.048 423.84,106.168 420.752,106.168 C417.664,106.168 415.84,107.048 415.84,108.648 C415.84,110.264 417.664,111.144 420.752,111.144 Z M420.752,110.472 C418.272,110.472 416.704,109.784 416.704,108.648 C416.704,107.528 418.272,106.84 420.752,106.84 C423.232,106.84 424.8,107.528 424.8,108.648 C424.8,109.784 423.232,110.472 420.752,110.472 Z M427.168,112.984 L427.168,112.264 L414.32,112.264 L414.32,112.984 L427.168,112.984 Z M425.936,119.912 L425.936,119.208 L416.8,119.208 L416.8,117.384 L425.472,117.384 L425.472,114.456 L415.936,114.456 L415.936,115.144 L424.64,115.144 L424.64,116.728 L415.968,116.728 L415.968,119.912 L425.936,119.912 Z M445.44,114.28 L445.44,113.56 L439.44,113.56 L439.44,111.832 L443.856,111.832 L443.856,111.144 L435.2,111.144 L435.2,109.384 L443.392,109.384 L443.392,108.696 L435.2,108.696 L435.2,107.032 L443.792,107.032 L443.792,106.344 L434.352,106.344 L434.352,111.832 L438.592,111.832 L438.592,113.56 L432.608,113.56 L432.608,114.28 L445.44,114.28 Z M439.024,120.072 C442.112,120.072 443.856,119.304 443.856,117.832 C443.856,116.376 442.112,115.608 439.024,115.608 C435.936,115.608 434.192,116.376 434.192,117.832 C434.192,119.304 435.936,120.072 439.024,120.072 Z M439.024,119.4 C436.544,119.4 435.04,118.84 435.04,117.832 C435.04,116.856 436.544,116.264 439.024,116.264 C441.504,116.264 443.008,116.856 443.008,117.832 C443.008,118.84 441.504,119.4 439.024,119.4 Z M455.792,108.2 L455.792,107.496 L452.016,107.496 L452.016,105.752 L451.168,105.752 L451.168,107.496 L447.376,107.496 L447.376,108.2 L455.792,108.2 Z M458.272,114.136 L458.272,110.392 L460.496,110.392 L460.496,109.656 L458.272,109.656 L458.272,105.896 L457.424,105.896 L457.424,114.136 L458.272,114.136 Z M451.584,113.992 C453.6,113.992 454.928,113.048 454.928,111.512 C454.928,109.992 453.6,109.048 451.584,109.048 C449.552,109.048 448.224,109.992 448.224,111.528 C448.224,113.048 449.552,113.992 451.584,113.992 Z M451.584,113.32 C450.064,113.32 449.024,112.584 449.024,111.512 C449.024,110.456 450.048,109.72 451.584,109.72 C453.104,109.72 454.128,110.456 454.128,111.528 C454.128,112.584 453.104,113.32 451.584,113.32 Z M458.272,119.896 L458.272,114.792 L457.424,114.792 L457.424,116.552 L450.352,116.552 L450.352,114.792 L449.504,114.792 L449.504,119.896 L458.272,119.896 Z M457.424,119.192 L450.352,119.192 L450.352,117.256 L457.424,117.256 L457.424,119.192 Z M470.512,108.504 L470.512,107.8 L466.736,107.8 L466.736,105.928 L465.888,105.928 L465.888,107.8 L462.096,107.8 L462.096,108.504 L470.512,108.504 Z M472.992,116.6 L472.992,111.512 L475.216,111.512 L475.216,110.792 L472.992,110.792 L472.992,105.928 L472.144,105.928 L472.144,116.6 L472.992,116.6 Z M466.304,114.648 C468.32,114.648 469.648,113.624 469.648,112.056 C469.648,110.472 468.32,109.448 466.304,109.448 C464.288,109.448 462.944,110.472 462.944,112.056 C462.944,113.624 464.288,114.648 466.304,114.648 Z M466.304,113.96 C464.784,113.96 463.744,113.16 463.744,112.056 C463.744,110.92 464.784,110.136 466.304,110.136 C467.824,110.136 468.848,110.92 468.848,112.056 C468.848,113.16 467.824,113.96 466.304,113.96 Z M473.696,119.768 L473.696,119.048 L465.168,119.048 L465.168,115.72 L464.32,115.72 L464.32,119.768 L473.696,119.768 Z M491.264,114.456 L491.264,110.552 L493.488,110.552 L493.488,109.816 L491.264,109.816 L491.264,105.912 L490.416,105.912 L490.416,114.456 L491.264,114.456 Z M480.8,114.088 C482.464,113.448 483.872,112.104 484.464,110.36 C485.056,111.944 486.384,113.192 487.984,113.8 L488.432,113.112 C486.464,112.408 484.864,110.664 484.864,108.648 L484.864,107.72 L488.224,107.72 L488.224,107 L480.656,107 L480.656,107.72 L484.032,107.72 L484.032,108.664 C484.032,110.84 482.336,112.68 480.352,113.416 L480.8,114.088 Z M491.264,120.104 L491.264,115.288 L482.176,115.288 L482.176,116.008 L490.416,116.008 L490.416,120.104 L491.264,120.104 Z M506.608,113.528 L506.608,105.912 L505.76,105.912 L505.76,109.432 L502.464,109.432 C502.256,107.72 500.832,106.6 498.88,106.6 C496.768,106.6 495.28,107.896 495.28,109.832 C495.28,111.752 496.768,113.064 498.88,113.064 C500.864,113.064 502.288,111.912 502.464,110.168 L505.76,110.168 L505.76,113.528 L506.608,113.528 Z M498.88,112.344 C497.264,112.344 496.096,111.256 496.096,109.832 C496.096,108.376 497.264,107.32 498.88,107.32 C500.496,107.32 501.664,108.376 501.664,109.832 C501.664,111.256 500.496,112.344 498.88,112.344 Z M506.608,119.896 L506.608,114.28 L505.76,114.28 L505.76,116.344 L498.576,116.344 L498.576,114.28 L497.728,114.28 L497.728,119.896 L506.608,119.896 Z M505.76,119.192 L498.576,119.192 L498.576,117.048 L505.76,117.048 L505.76,119.192 Z M524.064,111.64 C524.448,110.184 524.448,109.064 524.448,107.912 L524.448,106.68 L514.88,106.68 L514.88,107.4 L523.632,107.4 L523.632,107.912 C523.632,109.032 523.632,110.088 523.248,111.528 L524.064,111.64 Z M526.144,113.4 L526.144,112.68 L519.744,112.68 L519.744,109.8 L518.896,109.8 L518.896,112.68 L513.328,112.68 L513.328,113.4 L526.144,113.4 Z M519.696,120.072 C522.704,120.072 524.592,119.128 524.592,117.512 C524.592,115.896 522.704,114.936 519.696,114.936 C516.688,114.936 514.8,115.896 514.8,117.512 C514.8,119.128 516.688,120.072 519.696,120.072 Z M519.696,119.384 C517.28,119.384 515.648,118.648 515.648,117.512 C515.648,116.376 517.28,115.624 519.696,115.624 C522.112,115.624 523.76,116.376 523.76,117.512 C523.76,118.648 522.112,119.384 519.696,119.384 Z M538.96,116.44 L538.96,111.16 L541.2,111.16 L541.2,110.424 L538.96,110.424 L538.96,105.912 L538.112,105.912 L538.112,116.44 L538.96,116.44 Z M528.496,114.648 C532.464,113.32 535.168,110.6 535.168,107.032 L528.672,107.032 L528.672,107.752 L534.256,107.752 C534.032,110.584 531.6,112.792 528.128,113.944 L528.496,114.648 Z M539.68,119.768 L539.68,119.048 L531.152,119.048 L531.152,115.352 L530.304,115.352 L530.304,119.768 L539.68,119.768 Z M553.472,120.12 L553.472,112.744 L555.968,112.744 L555.968,111.976 L553.472,111.976 L553.472,105.896 L552.624,105.896 L552.624,120.12 L553.472,120.12 Z M550.064,113.832 C550.496,111.016 550.496,109.08 550.496,108.072 L550.496,107.544 L543.392,107.544 L543.392,108.248 L549.664,108.248 C549.664,109.288 549.632,111.16 549.216,113.752 L550.064,113.832 Z M542.72,116.856 C545.28,116.84 548.672,116.776 551.696,116.328 L551.632,115.688 C550.08,115.896 548.368,115.992 546.704,116.04 L546.704,111.608 L545.872,111.608 L545.872,116.072 C544.704,116.104 543.584,116.104 542.576,116.104 L542.72,116.856 Z M571.968,114.568 L571.968,110.52 L574.192,110.52 L574.192,109.8 L571.968,109.8 L571.968,105.912 L571.12,105.912 L571.12,114.568 L571.968,114.568 Z M561.456,114.456 C565.536,113.208 568.16,110.552 568.16,107.032 L561.68,107.032 L561.68,107.752 L567.232,107.752 C567.024,110.52 564.672,112.648 561.104,113.752 L561.456,114.456 Z M567.568,120.056 C570.368,120.056 572.128,119.08 572.128,117.416 C572.128,115.736 570.368,114.744 567.568,114.744 C564.8,114.744 563.04,115.736 563.04,117.416 C563.04,119.08 564.8,120.056 567.568,120.056 Z M567.568,119.368 C565.344,119.368 563.872,118.6 563.872,117.416 C563.872,116.216 565.344,115.448 567.568,115.448 C569.824,115.448 571.296,116.216 571.296,117.416 C571.296,118.6 569.824,119.368 567.568,119.368 Z M584.368,108.44 L584.368,107.72 L580.512,107.72 L580.512,105.896 L579.664,105.896 L579.664,107.72 L575.808,107.72 L575.808,108.44 L584.368,108.44 Z M586.496,120.104 L586.496,112.84 L588.96,112.84 L588.96,112.104 L586.496,112.104 L586.496,105.912 L585.648,105.912 L585.648,120.104 L586.496,120.104 Z M584.768,116.632 L584.704,115.976 C583.376,116.184 581.936,116.28 580.512,116.36 L580.512,114.616 C582.24,114.472 583.376,113.512 583.376,112.04 C583.376,110.44 582.048,109.432 580.096,109.432 C578.128,109.432 576.832,110.44 576.832,112.04 C576.832,113.512 577.952,114.472 579.664,114.616 L579.664,116.392 C578.192,116.456 576.784,116.456 575.568,116.456 L575.728,117.192 C578.256,117.192 581.648,117.16 584.768,116.632 Z M580.096,113.96 C578.608,113.96 577.616,113.16 577.616,112.04 C577.616,110.904 578.608,110.12 580.096,110.12 C581.568,110.12 582.576,110.904 582.576,112.04 C582.576,113.16 581.568,113.96 580.096,113.96 Z M601.952,116.504 L601.952,105.912 L601.104,105.912 L601.104,116.504 L601.952,116.504 Z M590.672,114.6 C593.344,114.6 596.8,114.472 599.84,114.04 L599.792,113.4 C598.48,113.56 597.024,113.656 595.6,113.72 L595.6,111.448 L598.624,111.448 L598.624,110.728 L592.688,110.728 L592.688,107.576 L598.528,107.576 L598.528,106.872 L591.856,106.872 L591.856,111.448 L594.752,111.448 L594.752,113.768 C593.264,113.816 591.808,113.848 590.512,113.848 L590.672,114.6 Z M602.48,119.768 L602.48,119.048 L593.872,119.048 L593.872,115.832 L593.024,115.832 L593.024,119.768 L602.48,119.768 Z M620.72,120.12 L620.72,105.912 L619.888,105.912 L619.888,120.12 L620.72,120.12 Z M617.888,119.336 L617.888,106.296 L617.072,106.296 L617.072,111.464 L613.664,111.464 L613.664,112.184 L617.072,112.184 L617.072,119.336 L617.888,119.336 Z M615.568,116.104 L615.456,115.368 C613.965176,115.714353 612.701121,115.791419 610.610029,115.799287 L610.176,115.8 L610.176,108.456 L614.624,108.456 L614.624,107.736 L609.328,107.736 L609.328,116.536 L610.208,116.536 C612.592,116.536 613.92,116.456 615.568,116.104 Z M634.976,120.12 L634.976,105.912 L634.128,105.912 L634.128,120.12 L634.976,120.12 Z M627.584,116.824 C629.648,116.824 631.104,114.92 631.104,111.944 C631.104,108.984 629.648,107.064 627.584,107.064 C625.504,107.064 624.048,108.984 624.048,111.944 C624.048,114.92 625.504,116.824 627.584,116.824 Z M627.584,116.088 C625.984,116.088 624.864,114.376 624.864,111.944 C624.864,109.512 625.984,107.816 627.584,107.816 C629.168,107.816 630.288,109.512 630.288,111.944 C630.288,114.376 629.168,116.088 627.584,116.088 Z M649.744,120.136 L649.744,105.896 L648.896,105.896 L648.896,111.464 L645.632,111.464 L645.632,112.2 L648.896,112.2 L648.896,120.136 L649.744,120.136 Z M646.48,116.104 L646.4,115.384 C644.526222,115.761778 642.952148,115.854123 640.356861,115.863218 L639.68,115.864 L639.68,112.008 L644.704,112.008 L644.704,111.288 L639.68,111.288 L639.68,107.992 L645.392,107.992 L645.392,107.256 L638.832,107.256 L638.832,116.584 L639.888,116.584 C642.784,116.584 644.464,116.488 646.48,116.104 Z M669.344,118.216 L669.344,117.496 L663.28,117.496 L663.28,114.152 L667.696,114.152 L667.696,106.968 L666.864,106.968 L666.864,109.72 L658.896,109.72 L658.896,106.968 L658.048,106.968 L658.048,114.152 L662.432,114.152 L662.432,117.496 L656.432,117.496 L656.432,118.216 L669.344,118.216 Z M666.864,113.432 L658.896,113.432 L658.896,110.44 L666.864,110.44 L666.864,113.432 Z M682.112,116.44 L682.112,111.096 L684.336,111.096 L684.336,110.36 L682.112,110.36 L682.112,105.896 L681.264,105.896 L681.264,116.44 L682.112,116.44 Z M675.152,113.832 C677.216,113.832 678.752,112.408 678.752,110.392 C678.752,108.36 677.216,106.952 675.152,106.952 C673.056,106.952 671.536,108.36 671.536,110.392 C671.536,112.408 673.056,113.832 675.152,113.832 Z M675.152,113.08 C673.552,113.08 672.352,111.928 672.352,110.392 C672.352,108.856 673.552,107.704 675.152,107.704 C676.72,107.704 677.92,108.856 677.92,110.392 C677.92,111.928 676.72,113.08 675.152,113.08 Z M682.816,119.768 L682.816,119.048 L674.288,119.048 L674.288,115.368 L673.44,115.368 L673.44,119.768 L682.816,119.768 Z M700.976,114.12 L700.976,105.896 L700.128,105.896 L700.128,114.12 L700.976,114.12 Z M696.656,112.552 L696.656,106.856 L690.192,106.856 L690.192,112.552 L696.656,112.552 Z M695.84,111.848 L691.024,111.848 L691.024,107.56 L695.84,107.56 L695.84,111.848 Z M701.552,120.056 L701.856,119.384 C699.776,119.064 697.088,117.656 697.088,116.056 L697.088,115.912 L701.392,115.912 L701.392,115.224 L697.088,115.224 L697.088,113.688 L696.224,113.688 L696.224,115.224 L691.952,115.224 L691.952,115.912 L696.224,115.912 L696.224,116.056 C696.224,117.672 693.44,119.096 691.376,119.384 L691.68,120.056 C693.616,119.72 695.856,118.664 696.656,117.208 C697.44,118.648 699.6,119.72 701.552,120.056 Z M718.592,116.648 L718.592,111.432 L720.832,111.432 L720.832,110.696 L718.592,110.696 L718.592,105.912 L717.744,105.912 L717.744,116.648 L718.592,116.648 Z M715.072,111.944 C715.472,110.024 715.472,108.6 715.472,107.72 L715.472,107.064 L708.56,107.064 L708.56,107.768 L714.64,107.768 C714.64,108.648 714.64,109.96 714.224,111.864 L715.072,111.944 Z M707.792,114.168 C710.32,114.152 713.776,114.088 716.752,113.608 L716.688,112.952 C715.136,113.176 713.424,113.288 711.776,113.352 L711.776,110.136 L710.928,110.136 L710.928,113.384 C709.76,113.416 708.656,113.416 707.68,113.416 L707.792,114.168 Z M719.056,119.768 L719.056,119.048 L710.768,119.048 L710.768,115.64 L709.92,115.64 L709.92,119.768 L719.056,119.768 Z M733.968,120.136 L733.968,105.912 L733.12,105.912 L733.12,120.136 L733.968,120.136 Z M724.416,116.616 C726.752,116.616 728.944,116.52 731.664,116.088 L731.584,115.368 C728.896,115.784 726.704,115.896 724.416,115.896 L724.128,115.896 L724.128,112.104 L729.728,112.104 L729.728,107.288 L723.232,107.288 L723.232,108.024 L728.896,108.024 L728.896,111.384 L723.28,111.384 L723.28,116.616 L724.416,116.616 Z M748.576,111.32 L748.576,110.664 L739.664,110.664 L739.664,109.128 L748.32,109.128 L748.32,106.408 L738.8,106.408 L738.8,107.064 L747.488,107.064 L747.488,108.504 L738.832,108.504 L738.832,111.32 L748.576,111.32 Z M750.032,113.32 L750.032,112.648 L737.12,112.648 L737.12,113.32 L750.032,113.32 Z M748.864,119.88 L748.864,119.208 L739.584,119.208 L739.584,117.56 L748.368,117.56 L748.368,114.76 L738.72,114.76 L738.72,115.416 L747.552,115.416 L747.552,116.92 L738.768,116.92 L738.768,119.88 L748.864,119.88 Z M768.256,114.28 L768.256,113.56 L762.256,113.56 L762.256,111.832 L766.672,111.832 L766.672,111.144 L758.016,111.144 L758.016,109.384 L766.208,109.384 L766.208,108.696 L758.016,108.696 L758.016,107.032 L766.608,107.032 L766.608,106.344 L757.168,106.344 L757.168,111.832 L761.408,111.832 L761.408,113.56 L755.424,113.56 L755.424,114.28 L768.256,114.28 Z M761.84,120.072 C764.928,120.072 766.672,119.304 766.672,117.832 C766.672,116.376 764.928,115.608 761.84,115.608 C758.752,115.608 757.008,116.376 757.008,117.832 C757.008,119.304 758.752,120.072 761.84,120.072 Z M761.84,119.4 C759.36,119.4 757.856,118.84 757.856,117.832 C757.856,116.856 759.36,116.264 761.84,116.264 C764.32,116.264 765.824,116.856 765.824,117.832 C765.824,118.84 764.32,119.4 761.84,119.4 Z M782.064,120.12 L782.064,105.912 L781.232,105.912 L781.232,112.024 L778.976,112.024 L778.976,106.264 L778.144,106.264 L778.144,119.368 L778.976,119.368 L778.976,112.744 L781.232,112.744 L781.232,120.12 L782.064,120.12 Z M777.312,109.24 L777.312,108.52 L774.128,108.52 L774.128,106.344 L773.28,106.344 L773.28,108.52 L770.112,108.52 L770.112,109.24 L777.312,109.24 Z M773.696,116.696 C775.456,116.696 776.72,115.4 776.72,113.528 C776.72,111.672 775.456,110.376 773.696,110.376 C771.968,110.376 770.688,111.672 770.688,113.528 C770.688,115.4 771.968,116.696 773.696,116.696 Z M773.696,115.96 C772.4,115.96 771.456,114.904 771.456,113.528 C771.456,112.168 772.4,111.096 773.696,111.096 C775.008,111.096 775.952,112.168 775.952,113.528 C775.952,114.904 775.008,115.96 773.696,115.96 Z M800.512,108.92 L800.512,108.2 L795.264,108.2 L795.264,106.168 L794.416,106.168 L794.416,108.2 L789.104,108.2 L789.104,108.92 L800.512,108.92 Z M801.296,118.344 L801.296,117.624 L797.68,117.624 L797.68,114.808 C798.752,114.392 799.376,113.64 799.376,112.664 C799.376,111 797.648,110.04 794.832,110.04 C792.016,110.04 790.288,111 790.288,112.664 C790.288,113.64 790.912,114.392 791.984,114.808 L791.984,117.624 L788.416,117.624 L788.416,118.344 L801.296,118.344 Z M794.832,114.584 C792.592,114.584 791.136,113.832 791.136,112.664 C791.136,111.48 792.592,110.728 794.832,110.728 C797.072,110.728 798.528,111.48 798.528,112.664 C798.528,113.832 797.072,114.584 794.832,114.584 Z M796.832,117.624 L792.832,117.624 L792.832,115.08 C793.424,115.208 794.08,115.272 794.832,115.272 C795.584,115.272 796.24,115.208 796.832,115.08 L796.832,117.624 Z M809.536,111.064 C812.624,111.064 814.464,110.184 814.464,108.568 C814.464,106.968 812.624,106.088 809.536,106.088 C806.464,106.088 804.64,106.968 804.64,108.568 C804.64,110.184 806.464,111.064 809.536,111.064 Z M809.536,110.392 C807.056,110.392 805.504,109.704 805.504,108.568 C805.504,107.448 807.056,106.76 809.536,106.76 C812.016,106.76 813.6,107.448 813.6,108.568 C813.6,109.704 812.016,110.392 809.536,110.392 Z M814.736,119.912 L814.736,119.208 L805.6,119.208 L805.6,117.384 L814.272,117.384 L814.272,114.456 L812.176,114.456 L812.176,112.824 L815.968,112.824 L815.968,112.104 L803.136,112.104 L803.136,112.824 L806.768,112.824 L806.768,114.456 L804.752,114.456 L804.752,115.144 L813.44,115.144 L813.44,116.728 L804.768,116.728 L804.768,119.912 L814.736,119.912 Z M811.328,114.456 L807.6,114.456 L807.6,112.824 L811.328,112.824 L811.328,114.456 Z M829.424,114.424 L829.424,105.912 L828.576,105.912 L828.576,109.8 L825.376,109.8 L825.376,110.52 L828.576,110.52 L828.576,114.424 L829.424,114.424 Z M818.432,114.136 C820.112,113.48 821.552,112.088 822.128,110.312 C822.72,111.88 824.08,113.16 825.68,113.784 L826.112,113.112 C824.176,112.408 822.528,110.616 822.528,108.664 L822.528,107.72 L825.856,107.72 L825.856,107 L818.304,107 L818.304,107.72 L821.696,107.72 L821.696,108.68 C821.696,110.824 819.952,112.728 817.984,113.464 L818.432,114.136 Z M829.424,120.104 L829.424,115.272 L820.048,115.272 L820.048,115.992 L828.576,115.992 L828.576,120.104 L829.424,120.104 Z M844.128,116.408 L844.128,105.928 L843.28,105.928 L843.28,116.408 L844.128,116.408 Z M836.576,113.832 C838.656,113.832 840.176,112.408 840.176,110.376 C840.176,108.36 838.656,106.952 836.576,106.952 C834.496,106.952 832.976,108.36 832.976,110.376 C832.976,112.408 834.496,113.832 836.576,113.832 Z M836.576,113.08 C834.992,113.08 833.792,111.912 833.792,110.376 C833.792,108.856 834.992,107.704 836.576,107.704 C838.16,107.704 839.36,108.856 839.36,110.376 C839.36,111.912 838.16,113.08 836.576,113.08 Z M844.608,119.768 L844.608,119.048 L836.048,119.048 L836.048,115.304 L835.2,115.304 L835.2,119.768 L844.608,119.768 Z M62.48,138.528 L62.48,130.912 L61.632,130.912 L61.632,134.432 L58.336,134.432 C58.128,132.72 56.704,131.6 54.752,131.6 C52.64,131.6 51.152,132.896 51.152,134.832 C51.152,136.752 52.64,138.064 54.752,138.064 C56.736,138.064 58.16,136.912 58.336,135.168 L61.632,135.168 L61.632,138.528 L62.48,138.528 Z M54.752,137.344 C53.136,137.344 51.968,136.256 51.968,134.832 C51.968,133.376 53.136,132.32 54.752,132.32 C56.368,132.32 57.536,133.376 57.536,134.832 C57.536,136.256 56.368,137.344 54.752,137.344 Z M62.48,144.896 L62.48,139.28 L61.632,139.28 L61.632,141.344 L54.448,141.344 L54.448,139.28 L53.6,139.28 L53.6,144.896 L62.48,144.896 Z M61.632,144.192 L54.448,144.192 L54.448,142.048 L61.632,142.048 L61.632,144.192 Z M76.784,137.168 L76.784,131.744 L67.344,131.744 L67.344,137.168 L76.784,137.168 Z M75.952,136.464 L68.176,136.464 L68.176,132.448 L75.952,132.448 L75.952,136.464 Z M72.448,145.104 L72.448,140.064 L78.512,140.064 L78.512,139.344 L65.6,139.344 L65.6,140.064 L71.6,140.064 L71.6,145.104 L72.448,145.104 Z M92.464,133.12 L92.464,132.448 L88.768,132.448 L88.768,130.864 L87.92,130.864 L87.92,132.448 L84.224,132.448 L84.224,133.12 L92.464,133.12 Z M94.752,142.032 L94.752,136.768 L97.008,136.768 L97.008,136.048 L94.752,136.048 L94.752,130.912 L93.904,130.912 L93.904,142.032 L94.752,142.032 Z M84,140.24 C86.496,140.224 89.952,140.176 92.992,139.632 L92.928,139.008 C91.616,139.2 90.176,139.328 88.768,139.392 L88.768,138.192 C90.464,138.08 91.552,137.28 91.552,136.016 C91.552,134.672 90.272,133.856 88.336,133.856 C86.384,133.856 85.104,134.672 85.104,136.016 C85.104,137.296 86.208,138.08 87.92,138.192 L87.92,139.44 C86.464,139.488 85.056,139.504 83.872,139.504 L84,140.24 Z M88.336,137.568 C86.88,137.568 85.904,136.944 85.904,136.016 C85.904,135.104 86.88,134.496 88.336,134.496 C89.792,134.496 90.768,135.104 90.768,136.016 C90.768,136.944 89.792,137.568 88.336,137.568 Z M95.28,144.768 L95.28,144.048 L86.912,144.048 L86.912,141.296 L86.064,141.296 L86.064,144.768 L95.28,144.768 Z M110.192,139.616 L110.192,130.928 L109.344,130.928 L109.344,133.744 L105.68,133.744 C105.824,133.216 105.904,132.64 105.904,132.048 L99.552,132.048 L99.552,132.752 L104.992,132.752 C104.768,135.536 102.32,137.648 98.848,138.736 L99.232,139.44 C102.208,138.496 104.48,136.784 105.424,134.464 L109.344,134.464 L109.344,136.72 L105.248,136.72 L105.248,137.44 L109.344,137.44 L109.344,139.616 L110.192,139.616 Z M105.632,145.056 C108.48,145.056 110.256,144.08 110.256,142.4 C110.256,140.752 108.48,139.776 105.632,139.776 C102.752,139.776 100.976,140.752 100.976,142.4 C100.976,144.08 102.752,145.056 105.632,145.056 Z M105.632,144.368 C103.312,144.368 101.808,143.6 101.808,142.4 C101.808,141.216 103.312,140.464 105.632,140.464 C107.92,140.464 109.44,141.216 109.44,142.4 C109.44,143.6 107.92,144.368 105.632,144.368 Z M119.76,136.144 C122.848,136.144 124.672,135.264 124.672,133.648 C124.672,132.048 122.848,131.168 119.76,131.168 C116.672,131.168 114.848,132.048 114.848,133.648 C114.848,135.264 116.672,136.144 119.76,136.144 Z M119.76,135.472 C117.28,135.472 115.712,134.784 115.712,133.648 C115.712,132.528 117.28,131.84 119.76,131.84 C122.24,131.84 123.808,132.528 123.808,133.648 C123.808,134.784 122.24,135.472 119.76,135.472 Z M126.176,137.984 L126.176,137.264 L113.328,137.264 L113.328,137.984 L126.176,137.984 Z M124.944,144.912 L124.944,144.208 L115.808,144.208 L115.808,142.384 L124.48,142.384 L124.48,139.456 L114.944,139.456 L114.944,140.144 L123.648,140.144 L123.648,141.728 L114.976,141.728 L114.976,144.912 L124.944,144.912 Z M143.6,145.12 L143.6,130.912 L142.768,130.912 L142.768,145.12 L143.6,145.12 Z M140.736,144.336 L140.736,131.296 L139.92,131.296 L139.92,136.144 L137.28,136.144 L137.28,136.88 L139.92,136.88 L139.92,144.336 L140.736,144.336 Z M132.048,142.16 C133.52,141.248 134.672,139.424 135.168,137.328 C135.664,139.28 136.768,140.944 138.208,141.824 L138.752,141.184 C136.88,140.112 135.568,137.584 135.568,135.072 L135.568,133.424 L138.4,133.424 L138.4,132.704 L131.808,132.704 L131.808,133.424 L134.752,133.424 L134.752,135.072 C134.752,137.776 133.392,140.384 131.488,141.52 L132.048,142.16 Z M157.088,136.64 C157.472,135.184 157.472,134.064 157.472,132.912 L157.472,131.68 L147.904,131.68 L147.904,132.4 L156.656,132.4 L156.656,132.912 C156.656,134.032 156.656,135.088 156.272,136.528 L157.088,136.64 Z M159.168,138.4 L159.168,137.68 L152.768,137.68 L152.768,134.8 L151.92,134.8 L151.92,137.68 L146.352,137.68 L146.352,138.4 L159.168,138.4 Z M152.72,145.072 C155.728,145.072 157.616,144.128 157.616,142.512 C157.616,140.896 155.728,139.936 152.72,139.936 C149.712,139.936 147.824,140.896 147.824,142.512 C147.824,144.128 149.712,145.072 152.72,145.072 Z M152.72,144.384 C150.304,144.384 148.672,143.648 148.672,142.512 C148.672,141.376 150.304,140.624 152.72,140.624 C155.136,140.624 156.784,141.376 156.784,142.512 C156.784,143.648 155.136,144.384 152.72,144.384 Z M171.856,145.104 L171.856,137.648 L174.352,137.648 L174.352,136.928 L171.856,136.928 L171.856,130.896 L171.008,130.896 L171.008,145.104 L171.856,145.104 Z M169.408,133.984 L169.408,133.264 L165.68,133.264 L165.68,131.04 L164.832,131.04 L164.832,133.264 L160.96,133.264 L160.96,133.984 L169.408,133.984 Z M165.28,141.776 C167.248,141.776 168.656,140.48 168.656,138.592 C168.656,136.72 167.248,135.392 165.28,135.392 C163.312,135.392 161.904,136.72 161.904,138.592 C161.904,140.48 163.312,141.776 165.28,141.776 Z M165.28,141.056 C163.776,141.056 162.704,139.984 162.704,138.592 C162.704,137.184 163.776,136.128 165.28,136.128 C166.768,136.128 167.856,137.184 167.856,138.592 C167.856,139.984 166.768,141.056 165.28,141.056 Z M187.136,136.16 L187.136,135.44 L178.432,135.44 L178.432,131.424 L177.584,131.424 L177.584,136.16 L187.136,136.16 Z M188.656,139.04 L188.656,138.32 L175.76,138.32 L175.76,139.04 L188.656,139.04 Z M187.216,144.752 L187.216,144.032 L178.368,144.032 L178.368,140.64 L177.52,140.64 L177.52,144.752 L187.216,144.752 Z M200.448,136.912 C203.44,136.912 205.36,135.84 205.36,134.112 C205.36,132.384 203.44,131.328 200.448,131.328 C197.488,131.328 195.568,132.384 195.568,134.112 C195.568,135.84 197.488,136.912 200.448,136.912 Z M200.448,136.192 C198.08,136.192 196.448,135.36 196.448,134.112 C196.448,132.864 198.08,132.032 200.448,132.032 C202.848,132.032 204.48,132.864 204.48,134.112 C204.48,135.36 202.848,136.192 200.448,136.192 Z M201.008,142.176 L201.008,139.024 L206.928,139.024 L206.928,138.304 L194.016,138.304 L194.016,139.024 L200.16,139.024 L200.16,142.176 L201.008,142.176 Z M205.504,144.768 L205.504,144.032 L196.592,144.032 L196.592,140.688 L195.76,140.688 L195.76,144.768 L205.504,144.768 Z M220.336,139.36 L220.336,130.896 L219.488,130.896 L219.488,133.072 L215.52,133.072 C214.88,132.272 213.84,131.792 212.608,131.792 C210.528,131.792 209.008,133.152 209.008,135.088 C209.008,137.056 210.528,138.432 212.608,138.432 C213.84,138.432 214.88,137.936 215.52,137.136 L219.488,137.136 L219.488,139.36 L220.336,139.36 Z M212.608,137.68 C211.008,137.68 209.824,136.576 209.824,135.088 C209.824,133.632 211.008,132.512 212.608,132.512 C214.208,132.512 215.392,133.632 215.392,135.088 C215.392,136.576 214.208,137.68 212.608,137.68 Z M219.488,136.416 L215.952,136.416 C216.112,136.016 216.208,135.568 216.208,135.088 C216.208,134.624 216.112,134.176 215.952,133.776 L219.488,133.776 L219.488,136.416 Z M215.728,145.072 C218.624,145.072 220.4,144.096 220.4,142.4 C220.4,140.704 218.624,139.728 215.728,139.728 C212.848,139.728 211.088,140.704 211.088,142.4 C211.088,144.096 212.848,145.072 215.728,145.072 Z M215.728,144.384 C213.424,144.384 211.92,143.616 211.92,142.4 C211.92,141.2 213.424,140.416 215.728,140.416 C218.064,140.416 219.568,141.2 219.568,142.4 C219.568,143.616 218.064,144.384 215.728,144.384 Z M239.024,145.12 L239.024,130.896 L238.192,130.896 L238.192,145.12 L239.024,145.12 Z M236.16,144.336 L236.16,131.28 L235.344,131.28 L235.344,136.656 L232.832,136.656 L232.832,137.376 L235.344,137.376 L235.344,144.336 L236.16,144.336 Z M227.536,142.064 C228.992,141.152 230.128,139.392 230.608,137.392 C231.12,139.28 232.288,140.928 233.712,141.776 L234.24,141.104 C232.384,140.096 231.008,137.648 231.008,135.312 L231.008,134.384 L233.888,134.384 L233.888,133.664 L231.024,133.664 L231.024,131.424 L230.192,131.424 L230.192,133.664 L227.296,133.664 L227.296,134.384 L230.192,134.384 L230.192,135.312 C230.192,137.728 228.848,140.32 226.992,141.424 L227.536,142.064 Z M253.744,145.12 L253.744,130.912 L252.912,130.912 L252.912,145.12 L253.744,145.12 Z M250.88,144.336 L250.88,131.296 L250.064,131.296 L250.064,136.144 L247.424,136.144 L247.424,136.88 L250.064,136.88 L250.064,144.336 L250.88,144.336 Z M242.192,142.16 C243.664,141.248 244.816,139.424 245.312,137.328 C245.808,139.28 246.912,140.944 248.352,141.824 L248.896,141.184 C247.024,140.112 245.712,137.584 245.712,135.072 L245.712,133.424 L248.544,133.424 L248.544,132.704 L241.952,132.704 L241.952,133.424 L244.896,133.424 L244.896,135.072 C244.896,137.776 243.536,140.384 241.632,141.52 L242.192,142.16 Z M268.032,138.528 L268.032,130.912 L267.184,130.912 L267.184,138.528 L268.032,138.528 Z M260.464,138.08 C262.592,138.08 264.08,136.784 264.08,134.864 C264.08,132.944 262.592,131.648 260.464,131.648 C258.368,131.648 256.88,132.944 256.88,134.864 C256.88,136.784 258.368,138.08 260.464,138.08 Z M260.464,137.36 C258.864,137.36 257.696,136.304 257.696,134.864 C257.696,133.408 258.864,132.368 260.464,132.368 C262.096,132.368 263.264,133.408 263.264,134.864 C263.264,136.304 262.096,137.36 260.464,137.36 Z M268.032,144.896 L268.032,139.28 L267.2,139.28 L267.2,141.264 L259.904,141.264 L259.904,139.28 L259.056,139.28 L259.056,144.896 L268.032,144.896 Z M267.2,144.192 L259.904,144.192 L259.904,141.968 L267.2,141.968 L267.2,144.192 Z M282.688,145.12 L282.688,130.912 L281.84,130.912 L281.84,145.12 L282.688,145.12 Z M273.296,141.36 C275.6,141.36 277.776,141.168 280.272,140.656 L280.144,139.92 C277.728,140.432 275.52,140.608 273.296,140.608 L273.024,140.608 L273.024,132.304 L272.192,132.304 L272.192,141.36 L273.296,141.36 Z M296.72,145.136 L296.72,137.456 L299.216,137.456 L299.216,136.736 L296.72,136.736 L296.72,130.912 L295.872,130.912 L295.872,145.136 L296.72,145.136 Z M287.632,141.504 C290.416,141.504 292.24,141.408 294.448,140.992 L294.336,140.256 C292.208,140.656 290.384,140.768 287.632,140.768 L287.408,140.768 L287.408,133.04 L293.136,133.04 L293.136,132.32 L286.56,132.32 L286.56,141.504 L287.632,141.504 Z M301.728,144.208 C302.16,144.208 302.544,143.872 302.544,143.344 C302.544,142.8 302.16,142.464 301.728,142.464 C301.296,142.464 300.912,142.8 300.912,143.344 C300.912,143.872 301.296,144.208 301.728,144.208 Z" id="업무환경이클라우드기반으로변화함에따라필수기능을통합한작업공간과강화된데이터보안및관리를통해효율적인업무환경을제공하는운영체제입니다." fill="#000000" fill-rule="nonzero"></path>
            <path d="M65.21,63.334 L65.21,61.202 L59.62,61.202 L59.62,58.498 L56.942,58.498 L56.942,61.202 L51.352,61.202 L51.352,63.334 L65.21,63.334 Z M69.656,76.126 L69.656,68.222 L72.984,68.222 L72.984,66.012 L69.656,66.012 L69.656,58.524 L66.978,58.524 L66.978,76.126 L69.656,76.126 Z M58.268,73.318 C61.648,73.318 63.962,71.55 63.962,68.872 C63.962,66.22 61.648,64.426 58.268,64.426 C54.914,64.426 52.574,66.22 52.574,68.872 C52.574,71.55 54.914,73.318 58.268,73.318 Z M58.268,71.238 C56.422,71.238 55.148,70.354 55.148,68.872 C55.148,67.39 56.422,66.506 58.268,66.506 C60.14,66.506 61.414,67.39 61.414,68.872 C61.414,70.354 60.14,71.238 58.268,71.238 Z M70.592,81.56 L70.592,79.376 L57.488,79.376 L57.488,74.774 L54.784,74.774 L54.784,81.56 L70.592,81.56 Z M94.694,71.992 L94.694,58.524 L92.016,58.524 L92.016,64.582 L87.336,64.582 L87.336,66.766 L92.016,66.766 L92.016,71.992 L94.694,71.992 Z M76.78,72.538 C84.242,70.276 87.44,65.986 87.44,59.772 L76.858,59.772 L76.858,61.956 L84.606,61.956 C84.528,62.71 84.346,63.412 84.112,64.088 L75.688,64.426 L76.078,66.584 L83.02,66.064 C81.668,67.91 79.302,69.392 75.74,70.432 L76.78,72.538 Z M94.694,81.716 L94.694,73.162 L79.406,73.162 L79.406,81.716 L94.694,81.716 Z M92.068,79.584 L82.032,79.584 L82.032,75.294 L92.068,75.294 L92.068,79.584 Z M111.048,82.002 L111.048,72.2 L120.408,72.2 L120.408,69.99 L117.132,69.99 C117.73,66.662 117.73,64.218 117.73,62.008 L117.73,59.954 L101.714,59.954 L101.714,62.112 L115.104,62.112 C115.104,64.27 115.104,66.714 114.428,69.99 L99.166,69.99 L99.166,72.2 L108.344,72.2 L108.344,82.002 L111.048,82.002 Z M142.144,68.846 L142.144,66.792 L128.416,66.792 L128.416,64.92 L141.676,64.92 L141.676,59.044 L125.738,59.044 L125.738,61.124 L139.024,61.124 L139.024,62.996 L125.79,62.996 L125.79,68.846 L142.144,68.846 Z M144.354,72.668 L144.354,70.536 L123.034,70.536 L123.034,72.668 L144.354,72.668 Z M141.728,81.716 L141.728,74.462 L125.842,74.462 L125.842,81.716 L141.728,81.716 Z M139.102,79.584 L128.468,79.584 L128.468,76.594 L139.102,76.594 L139.102,79.584 Z M157.614,68.794 C162.684,68.794 165.986,67 165.986,64.01 C165.986,61.046 162.684,59.252 157.614,59.252 C152.544,59.252 149.242,61.046 149.242,64.01 C149.242,67 152.544,68.794 157.614,68.794 Z M157.614,66.636 C154.156,66.636 151.998,65.674 151.998,64.01 C151.998,62.372 154.156,61.41 157.614,61.41 C161.046,61.41 163.204,62.372 163.204,64.01 C163.204,65.674 161.046,66.636 157.614,66.636 Z M168.222,72.876 L168.222,70.692 L146.98,70.692 L146.98,72.876 L168.222,72.876 Z M165.856,81.56 L165.856,79.376 L152.362,79.376 L152.362,74.722 L149.658,74.722 L149.658,81.56 L165.856,81.56 Z" id="한컴구름은" fill="#000000" fill-rule="nonzero"></path>
            <g id="Group-2" transform="translate(60.000000, 189.000000)">
                <rect id="Rectangle" fill="#004A9B" x="0" y="0" width="130" height="250"></rect>
                <path d="M39.422,161.942 L39.422,161.018 L36.286,161.018 L36.286,159.492 L35.138,159.492 L35.138,161.018 L32.016,161.018 L32.016,161.942 L39.422,161.942 Z M41.718,168.9 L41.718,164.588 L43.58,164.588 L43.58,163.622 L41.718,163.622 L41.718,159.492 L40.57,159.492 L40.57,168.9 L41.718,168.9 Z M35.712,167.304 C37.49,167.304 38.722,166.38 38.722,164.966 C38.722,163.566 37.49,162.642 35.712,162.642 C33.934,162.642 32.716,163.566 32.716,164.966 C32.716,166.38 33.934,167.304 35.712,167.304 Z M35.712,166.408 C34.564,166.408 33.808,165.848 33.808,164.966 C33.808,164.098 34.564,163.538 35.712,163.538 C36.846,163.538 37.63,164.098 37.63,164.966 C37.63,165.848 36.846,166.408 35.712,166.408 Z M42.278,171.756 L42.278,170.818 L35.054,170.818 L35.054,168.158 L33.906,168.158 L33.906,171.756 L42.278,171.756 Z M55.2,166.73 L55.2,159.492 L54.038,159.492 L54.038,162.796 L51.294,162.796 L51.294,163.748 L54.038,163.748 L54.038,166.73 L55.2,166.73 Z M45.638,166.912 C49.544,165.722 51.322,163.398 51.322,160.206 L45.75,160.206 L45.75,161.13 L50.118,161.13 C50.076,161.62 49.978,162.068 49.81,162.502 L45.12,162.712 L45.316,163.65 L49.348,163.342 C48.592,164.49 47.234,165.386 45.204,166.002 L45.638,166.912 Z M55.2,171.868 L55.2,167.402 L47.08,167.402 L47.08,171.868 L55.2,171.868 Z M54.066,170.944 L48.214,170.944 L48.214,168.312 L54.066,168.312 L54.066,170.944 Z M72.266,170.426 L72.266,169.474 L67.128,169.474 L67.128,166.856 C69.466,166.688 71.104,165.442 71.104,163.594 C71.104,161.592 69.2,160.304 66.554,160.304 C63.894,160.304 61.976,161.592 61.976,163.594 C61.976,165.442 63.628,166.688 65.966,166.856 L65.966,169.474 L60.856,169.474 L60.856,170.426 L72.266,170.426 Z M66.554,165.974 C64.552,165.974 63.082,165.036 63.082,163.594 C63.082,162.152 64.552,161.214 66.554,161.214 C68.556,161.214 70.012,162.152 70.012,163.594 C70.012,165.036 68.556,165.974 66.554,165.974 Z M84.054,172.036 L84.054,159.492 L82.906,159.492 L82.906,172.036 L84.054,172.036 Z M73.876,168.928 C76.158,168.914 79.182,168.886 81.884,168.452 L81.814,167.612 C81.156,167.696 80.47,167.766 79.77,167.794 L79.77,161.76 L81.17,161.76 L81.17,160.836 L74.058,160.836 L74.058,161.76 L75.458,161.76 L75.458,167.948 C74.856,167.962 74.282,167.962 73.75,167.962 L73.876,168.928 Z M76.564,167.934 L76.564,161.76 L78.664,161.76 L78.664,167.864 C77.95,167.892 77.25,167.92 76.564,167.934 Z M96.934,166.744 L97.452,165.792 C95.254,165.372 92.874,163.468 92.874,161.326 L92.874,160.36 L91.67,160.36 L91.67,161.326 C91.67,163.468 89.304,165.358 87.106,165.792 L87.624,166.744 C89.514,166.296 91.474,164.952 92.272,163.118 C93.07,164.966 95.03,166.31 96.934,166.744 Z M98.012,170.356 L98.012,169.404 L86.63,169.404 L86.63,170.356 L98.012,170.356 Z" id="한컴오피스" fill="#FFFFFF" fill-rule="nonzero"></path>
                <path d="M77,90 L77,87 L74,87 L74,90 L77,90 Z M77,92 L74,92 L74,95 L77,95 L77,92 Z M79,85 L79,97 L67,97 L67,85 L79,85 Z M72,90 L72,87 L69,87 L69,90 L72,90 Z M72,92 L69,92 L69,95 L72,95 L72,92 Z M51,90 L63,90 L63,92 L51,92 L51,90 Z M67,106 L69,106 L69,108 L67,108 L67,106 Z M71,106 L79,106 L79,108 L71,108 L71,106 Z M51,94 L60,94 L60,96 L51,96 L51,94 Z M67,110 L69,110 L69,112 L67,112 L67,110 Z M71,110 L79,110 L79,112 L71,112 L71,110 Z M51,86 L63,86 L63,88 L51,88 L51,86 Z M67,102 L69,102 L69,104 L67,104 L67,102 Z M71,102 L79,102 L79,104 L71,104 L71,102 Z M61,107 L57,107 L57,103 C54.790861,103 53,104.790861 53,107 C53,109.209139 54.790861,111 57,111 C59.209139,111 61,109.209139 61,107 Z M57,113 C53.6862915,113 51,110.313708 51,107 C51,103.686292 53.6862915,101 57,101 C60.3137085,101 63,103.686292 63,107 C63,110.313708 60.3137085,113 57,113 Z" id="Shape" fill="#FFFFFF"></path>
                <rect id="Rectangle-Copy-3" fill="#43A33D" x="130" y="0" width="130" height="250"></rect>
                <path d="M179.656,172.036 L179.656,165.778 L181.616,165.778 L181.616,164.812 L179.656,164.812 L179.656,159.478 L178.508,159.478 L178.508,172.036 L179.656,172.036 Z M177.556,161.914 L177.556,161.004 L174.392,161.004 L174.392,159.492 L173.244,159.492 L173.244,161.004 L170.052,161.004 L170.052,161.914 L177.556,161.914 Z M177.836,169.152 L177.766,168.298 C176.688,168.466 175.526,168.55 174.392,168.606 L174.392,167.276 C175.834,167.094 176.786,166.226 176.786,164.98 C176.786,163.566 175.568,162.656 173.818,162.656 C172.068,162.656 170.85,163.566 170.85,164.98 C170.85,166.226 171.802,167.094 173.244,167.276 L173.244,168.648 C172.026,168.69 170.85,168.69 169.842,168.69 L169.996,169.656 C172.194,169.656 175.148,169.628 177.836,169.152 Z M173.818,166.408 C172.698,166.408 171.942,165.848 171.942,164.98 C171.942,164.112 172.698,163.538 173.818,163.538 C174.938,163.538 175.694,164.112 175.694,164.98 C175.694,165.848 174.938,166.408 173.818,166.408 Z M192.606,167.094 L192.606,163.678 L194.468,163.678 L194.468,162.726 L192.606,162.726 L192.606,159.492 L191.458,159.492 L191.458,167.094 L192.606,167.094 Z M183.408,166.632 C184.878,166.072 185.998,164.924 186.516,163.454 C187.076,164.742 188.154,165.778 189.512,166.282 L190.114,165.386 C188.308,164.77 187.076,163.202 187.076,161.508 L187.076,160.122 L185.928,160.122 L185.928,161.41 C185.928,163.328 184.71,165.036 182.806,165.722 L183.408,166.632 Z M188.616,172.022 C191.164,172.022 192.746,171.196 192.746,169.74 C192.746,168.27 191.164,167.444 188.616,167.444 C186.054,167.444 184.472,168.27 184.472,169.74 C184.472,171.196 186.054,172.022 188.616,172.022 Z M188.616,171.126 C186.754,171.126 185.62,170.608 185.62,169.74 C185.62,168.858 186.754,168.34 188.616,168.34 C190.464,168.34 191.598,168.858 191.598,169.74 C191.598,170.608 190.464,171.126 188.616,171.126 Z M203.708,161.942 L203.708,161.018 L200.474,161.018 L200.474,159.492 L199.326,159.492 L199.326,161.018 L196.078,161.018 L196.078,161.942 L203.708,161.942 Z M205.976,172.036 L205.976,159.492 L204.828,159.492 L204.828,172.036 L205.976,172.036 Z M204.114,169.152 L204.03,168.298 C202.882,168.452 201.664,168.536 200.474,168.592 L200.474,167.276 C201.958,167.094 202.91,166.226 202.91,164.98 C202.91,163.566 201.692,162.656 199.9,162.656 C198.108,162.656 196.876,163.566 196.876,164.98 C196.876,166.24 197.842,167.108 199.326,167.29 L199.326,168.634 C198.08,168.676 196.876,168.69 195.812,168.69 L195.98,169.656 C198.29,169.656 201.314,169.614 204.114,169.152 Z M199.9,166.408 C198.752,166.408 197.968,165.848 197.968,164.98 C197.968,164.098 198.752,163.538 199.9,163.538 C201.034,163.538 201.818,164.098 201.818,164.98 C201.818,165.848 201.034,166.408 199.9,166.408 Z M218.856,172.064 L218.856,159.478 L217.708,159.478 L217.708,172.064 L218.856,172.064 Z M212.696,166.31 C214.656,166.31 216.056,165.106 216.056,163.356 C216.056,161.592 214.656,160.402 212.696,160.402 C210.75,160.402 209.336,161.592 209.336,163.356 C209.336,165.106 210.75,166.31 212.696,166.31 Z M212.696,165.33 C211.394,165.33 210.456,164.518 210.456,163.356 C210.456,162.18 211.394,161.382 212.696,161.382 C213.998,161.382 214.936,162.18 214.936,163.356 C214.936,164.518 213.998,165.33 212.696,165.33 Z M216.98,168.76 L216.882,167.906 C214.138,168.326 210.988,168.34 208.706,168.34 L208.846,169.306 C211.114,169.306 214.152,169.292 216.98,168.76 Z" id="화상회의" fill="#FFFFFF" fill-rule="nonzero"></path>
                <rect id="Rectangle" fill="#FFFFFF" x="186" y="93" width="13" height="10" rx="1"></rect>
                <path d="M205,94 L205,102 L201,99.715 L201,96.286 L205,94 Z" id="Combined-Shape" fill="#FFFFFF"></path>
                <path d="M187,108 L185,110 C182.238576,110 180,107.761424 180,105 L180,91 C180,88.2385763 182.238576,86 185,86 L205,86 C207.761424,86 210,88.2385763 210,91 L210,105 C210,107.761424 207.761424,110 205,110 L192.485281,110 L187.414214,115.071068 L186,113.656854 L191.656854,108 L187,108 Z M185,88 C183.343146,88 182,89.3431458 182,91 L182,105 C182,106.656854 183.343146,108 185,108 L205,108 C206.656854,108 208,106.656854 208,105 L208,91 C208,89.3431458 206.656854,88 205,88 L185,88 Z" id="Shape" fill="#FFFFFF"></path>
                <rect id="Rectangle-Copy-5" fill="#009BD8" x="260" y="0" width="130" height="250"></rect>
                <path d="M311.322,165.54 L311.322,164.616 L309.614,164.616 C309.908,163.132 309.908,162.012 309.908,161.032 L309.908,160.08 L301.438,160.08 L301.438,160.99 L308.774,160.99 L308.774,161.032 C308.774,161.396 308.774,161.788 308.76,162.208 L301.13,162.446 L301.27,163.356 L308.704,163.02 C308.648,163.496 308.578,164.028 308.452,164.616 L300.01,164.616 L300.01,165.54 L311.322,165.54 Z M310.426,171.868 L310.426,170.972 L302.488,170.972 L302.488,169.656 L309.978,169.656 L309.978,166.73 L301.326,166.73 L301.326,167.626 L308.858,167.626 L308.858,168.802 L301.354,168.802 L301.354,171.868 L310.426,171.868 Z M322.536,172.05 L322.536,165.428 L324.594,165.428 L324.594,164.462 L322.536,164.462 L322.536,159.464 L321.388,159.464 L321.388,172.05 L322.536,172.05 Z M314.374,169.012 C316.768,169.012 318.448,168.914 320.408,168.564 L320.282,167.612 C318.406,167.976 316.782,168.06 314.5,168.06 L314.5,165.148 L319.022,165.148 L319.022,160.64 L313.338,160.64 L313.338,161.578 L317.888,161.578 L317.888,164.21 L313.38,164.21 L313.38,169.012 L314.374,169.012 Z M331.398,165.484 C334.016,165.484 335.794,164.42 335.794,162.726 C335.794,161.046 334.016,159.982 331.398,159.982 C328.794,159.982 327.016,161.046 327.016,162.726 C327.016,164.42 328.794,165.484 331.398,165.484 Z M331.398,164.56 C329.494,164.56 328.192,163.846 328.192,162.726 C328.192,161.62 329.494,160.906 331.398,160.906 C333.316,160.906 334.618,161.62 334.618,162.726 C334.618,163.846 333.316,164.56 331.398,164.56 Z M331.972,172.05 L331.972,167.626 L337.11,167.626 L337.11,166.674 L325.742,166.674 L325.742,167.626 L330.824,167.626 L330.824,172.05 L331.972,172.05 Z M348.688,166.436 L348.688,165.498 L341.198,165.498 L341.198,161.578 L348.562,161.578 L348.562,160.626 L340.064,160.626 L340.064,166.436 L348.688,166.436 Z M350.004,170.342 L350.004,169.39 L338.608,169.39 L338.608,170.342 L350.004,170.342 Z" id="클라우드" fill="#FFFFFF" fill-rule="nonzero"></path>
                <g id="Group-4" transform="translate(299.000000, 88.000000)" fill="#FFFFFF">
                    <path d="M14,15 C16.4188915,15 18.4366008,16.7176654 18.8999437,18.999812 L49,19 L49,21 L17,21 L17,20 L17,20 C17,18.3431458 15.6568542,17 14,17 C12.3528408,17 11.0157296,18.3274729 11.0001378,19.9709472 L11,21 L1.23918653e-11,21 L1.23918653e-11,19 L9.10005628,18.999812 C9.56339924,16.7176654 11.5811085,15 14,15 Z" id="Combined-Shape"></path>
                    <path d="M41,7 C45.418278,7 49,10.581722 49,15 L49,15 L47,15 L47,15 C47,11.6862915 44.3137085,9 41,9 C37.6862915,9 35,11.6862915 35,15 L33,15 L33.0038068,14.7508207 C33.1354571,10.4478378 36.6650857,7 41,7 Z" id="Combined-Shape"></path>
                    <rect id="Rectangle" x="47" y="15" width="5" height="2"></rect>
                    <path d="M27,-3.63797881e-12 C31.5055215,-3.63797881e-12 35.5139461,2.12832468 38.0747378,5.43443797 C37.4040567,5.63947405 36.7629666,5.91309283 36.1600415,6.24719942 C33.9587245,3.64927043 30.6719661,2 27,2 C20.7091542,2 15.548926,6.84074966 15.0410297,13.0005348 L13.0351546,13.0001337 C13.5478362,5.73479477 19.6042016,-3.63797881e-12 27,-3.63797881e-12 Z" id="Combined-Shape"></path>
                    <path d="M35,15 L35,17 L20.3264957,17.000267 C19.9701908,16.2501455 19.4844052,15.5734484 18.8980206,14.9990574 L35,15 Z" id="Combined-Shape"></path>
                </g>
                <rect id="Rectangle-Copy-2" fill="#7948A3" x="390" y="0" width="130" height="250"></rect>
                <path d="M439.15,165.762 L439.15,159.028 L437.988,159.028 L437.988,162.01 L435.426,162.01 C435.188,160.554 433.928,159.602 432.234,159.602 C430.358,159.602 429,160.778 429,162.5 C429,164.236 430.358,165.412 432.234,165.412 C433.956,165.412 435.216,164.432 435.44,162.948 L437.988,162.948 L437.988,165.762 L439.15,165.762 Z M432.234,164.46 C430.988,164.46 430.092,163.648 430.092,162.5 C430.092,161.352 430.988,160.554 432.234,160.554 C433.48,160.554 434.376,161.352 434.376,162.5 C434.376,163.648 433.48,164.46 432.234,164.46 Z M439.15,171.404 L439.15,166.378 L438.002,166.378 L438.002,167.96 L432.248,167.96 L432.248,166.378 L431.114,166.378 L431.114,171.404 L439.15,171.404 Z M438.002,170.48 L432.248,170.48 L432.248,168.856 L438.002,168.856 L438.002,170.48 Z M451.61,164.6 L451.61,159.714 L443.126,159.714 L443.126,164.6 L451.61,164.6 Z M450.476,163.69 L444.246,163.69 L444.246,160.638 L450.476,160.638 L450.476,163.69 Z M447.914,171.558 L447.914,167.246 L453.066,167.246 L453.066,166.308 L441.67,166.308 L441.67,167.246 L446.766,167.246 L446.766,171.558 L447.914,171.558 Z M467.472,168.478 L467.472,164.054 L469.278,164.054 L469.278,163.102 L467.472,163.102 L467.472,159.014 L466.324,159.014 L466.324,168.478 L467.472,168.478 Z M464.294,164.376 C464.616,162.724 464.616,161.478 464.616,160.652 L464.616,159.994 L458.372,159.994 L458.372,160.932 L463.496,160.932 C463.496,161.73 463.454,162.808 463.16,164.25 L464.294,164.376 Z M457.728,166.476 C459.954,166.476 462.964,166.406 465.568,165.972 L465.484,165.132 C464.21,165.314 462.782,165.412 461.41,165.468 L461.41,162.794 L460.276,162.794 L460.276,165.51 C459.324,165.524 458.414,165.538 457.616,165.538 L457.728,166.476 Z M467.878,171.292 L467.878,170.354 L460.682,170.354 L460.682,167.61 L459.534,167.61 L459.534,171.292 L467.878,171.292 Z M480.884,171.586 L480.884,159 L479.736,159 L479.736,171.586 L480.884,171.586 Z M472.344,168.548 C474.5,168.548 476.404,168.464 478.672,168.086 L478.56,167.148 C476.362,167.498 474.514,167.596 472.456,167.596 L472.456,164.67 L477.09,164.67 L477.09,160.176 L471.266,160.176 L471.266,161.114 L475.928,161.114 L475.928,163.732 L471.308,163.732 L471.308,168.548 L472.344,168.548 Z" id="업무관리" fill="#FFFFFF" fill-rule="nonzero"></path>
                <path d="M465,104 C466.104569,104 467,103.104569 467,102 C467,100.895431 466.104569,100 465,100 C463.895431,100 463,100.895431 463,102 C463,103.104569 463.895431,104 465,104 Z M465,106 C462.790861,106 461,104.209139 461,102 C461,99.790861 462.790861,98 465,98 C467.209139,98 469,99.790861 469,102 C469,104.209139 467.209139,106 465,106 Z M459,113 C459,113.552285 458.552285,114 458,114 C457.447715,114 457,113.552285 457,113 C457,109.028129 459.83938,107 465,107 C470.16062,107 473,109.028129 473,113 C473,113.552285 472.552285,114 472,114 C471.447715,114 471,113.552285 471,113 C471,110.305205 469.172713,109 465,109 C460.827287,109 459,110.305205 459,113 Z" id="Shape" fill="#FFFFFF" fill-rule="nonzero"></path>
                <rect id="Rectangle" fill="#FFFFFF" x="454" y="85" width="2" height="28"></rect>
                <rect id="Rectangle-Copy-2" fill="#FFFFFF" x="442" y="92" width="2" height="19"></rect>
                <rect id="Rectangle" fill="#FFFFFF" x="454" y="85" width="13" height="2"></rect>
                <rect id="Rectangle-Copy-3" fill="#FFFFFF" x="442" y="92" width="10" height="2"></rect>
                <rect id="Rectangle-Copy-5" fill="#FFFFFF" x="438" y="111" width="6" height="2"></rect>
                <rect id="Rectangle-Copy-6" fill="#FFFFFF" x="450" y="111" width="6" height="2"></rect>
                <rect id="Rectangle-Copy" fill="#FFFFFF" x="465" y="85" width="2" height="11"></rect>
                <rect id="Rectangle-Copy-4" fill="#FFFFFF" x="450" y="92" width="2" height="19"></rect>
                <rect id="Rectangle-Copy-4" fill="#EF8823" x="520" y="0" width="130" height="250"></rect>
                <path d="M568.654,166.77 L568.654,159.014 L567.562,159.014 L567.562,166.77 L568.654,166.77 Z M566.372,166.742 L566.372,159.224 L565.294,159.224 L565.294,165.216 L563.096,165.216 L563.096,166.042 L565.294,166.042 L565.294,166.742 L566.372,166.742 Z M561.388,163.172 C563.026,163.172 564.118,162.458 564.118,161.296 C564.118,160.148 563.026,159.434 561.388,159.434 C559.764,159.434 558.672,160.148 558.672,161.296 C558.672,162.458 559.764,163.172 561.388,163.172 Z M561.388,162.346 C560.366,162.346 559.708,161.94 559.708,161.296 C559.708,160.652 560.366,160.246 561.388,160.246 C562.41,160.246 563.082,160.652 563.082,161.296 C563.082,161.94 562.41,162.346 561.388,162.346 Z M561.962,166.742 L561.962,164.656 C562.9,164.586 563.852,164.474 564.706,164.306 L564.622,163.508 C562.536,163.844 559.736,163.872 558,163.872 L558.14,164.768 C558.91,164.768 559.862,164.768 560.87,164.712 L560.87,166.742 L561.962,166.742 Z M568.654,171.39 L568.654,167.232 L567.534,167.232 L567.534,168.408 L561.346,168.408 L561.346,167.232 L560.212,167.232 L560.212,171.39 L568.654,171.39 Z M567.534,170.48 L561.346,170.48 L561.346,169.29 L567.534,169.29 L567.534,170.48 Z M584.446,171.572 L584.446,159 L583.298,159 L583.298,163.256 L580.386,163.256 L580.386,164.194 L583.298,164.194 L583.298,171.572 L584.446,171.572 Z M574.8,168.898 C576.214,168.142 577.376,166.56 577.922,164.698 C578.496,166.462 579.644,167.96 581.072,168.674 L581.744,167.764 C579.924,166.896 578.496,164.614 578.496,162.332 L578.496,160.078 L577.348,160.078 L577.348,162.332 C577.348,164.656 575.92,167.078 574.1,167.988 L574.8,168.898 Z M597.256,171.572 L597.256,159 L596.108,159 L596.108,171.572 L597.256,171.572 Z M593.602,168.534 L593.602,160.064 L592.468,160.064 L592.468,163.382 L588.828,163.382 L588.828,160.064 L587.694,160.064 L587.694,168.534 L593.602,168.534 Z M592.468,167.596 L588.828,167.596 L588.828,164.292 L592.468,164.292 L592.468,167.596 Z M610.164,166.266 L610.682,165.314 C608.484,164.894 606.104,162.99 606.104,160.848 L606.104,159.882 L604.9,159.882 L604.9,160.848 C604.9,162.99 602.534,164.88 600.336,165.314 L600.854,166.266 C602.744,165.818 604.704,164.474 605.502,162.64 C606.3,164.488 608.26,165.832 610.164,166.266 Z M611.242,169.878 L611.242,168.926 L599.86,168.926 L599.86,169.878 L611.242,169.878 Z" id="웹서비스" fill="#FFFFFF" fill-rule="nonzero"></path>
                <path d="M587.979126,103.802518 C587.253333,104.541586 586.242713,105 585.125024,105 C582.915885,105 581.125024,103.209139 581.125024,101 C581.125024,99.1361606 582.399796,97.5700603 584.125024,97.1260175 L584.125024,93 L586.125024,93 L586.125024,97.1260175 C587.850251,97.5700603 589.125024,99.1361606 589.125024,101 C589.125024,101.370957 589.074527,101.73012 588.980032,102.07099 L594.394412,105.196983 C595.641578,103.924914 597.635247,103.603979 599.249379,104.535898 C601.16255,105.640468 601.81805,108.08683 600.713481,110 C599.608911,111.91317 597.16255,112.568671 595.249379,111.464102 C593.635247,110.532182 592.916351,108.645146 593.394412,106.929034 L587.979126,103.802518 L587.979126,103.802518 Z M575.855635,105.196983 L579.428871,103.133975 L580.428871,104.866025 L576.855635,106.929034 C577.333696,108.645146 576.6148,110.532182 575.000668,111.464102 C573.087497,112.568671 570.641136,111.91317 569.536566,110 C568.431997,108.08683 569.087497,105.640468 571.000668,104.535898 C572.6148,103.603979 574.608469,103.924914 575.855635,105.196983 L575.855635,105.196983 Z M585.125024,103 C586.229593,103 587.125024,102.104569 587.125024,101 C587.125024,99.8954305 586.229593,99 585.125024,99 C584.020454,99 583.125024,99.8954305 583.125024,101 C583.125024,102.104569 584.020454,103 585.125024,103 Z M585.125024,89 C586.229593,89 587.125024,88.1045695 587.125024,87 C587.125024,85.8954305 586.229593,85 585.125024,85 C584.020454,85 583.125024,85.8954305 583.125024,87 C583.125024,88.1045695 584.020454,89 585.125024,89 Z M585.125024,91 C582.915885,91 581.125024,89.209139 581.125024,87 C581.125024,84.790861 582.915885,83 585.125024,83 C587.334163,83 589.125024,84.790861 589.125024,87 C589.125024,89.209139 587.334163,91 585.125024,91 Z M571.268617,109 C571.820902,109.956585 573.044083,110.284336 574.000668,109.732051 C574.957253,109.179766 575.285003,107.956585 574.732719,107 C574.180434,106.043415 572.957253,105.715664 572.000668,106.267949 C571.044083,106.820234 570.716332,108.043415 571.268617,109 Z M595.517328,107 C594.965044,107.956585 595.292794,109.179766 596.249379,109.732051 C597.205964,110.284336 598.429145,109.956585 598.98143,109 C599.533715,108.043415 599.205964,106.820234 598.249379,106.267949 C597.292794,105.715664 596.069613,106.043415 595.517328,107 Z M592.439715,111.748402 C592.869925,112.285445 593.390555,112.746923 593.978525,113.109756 C591.497112,114.927013 588.436372,116 585.125024,116 C581.813675,116 578.752935,114.927013 576.271522,113.109756 C576.859492,112.746923 577.380122,112.285445 577.810333,111.748402 C579.894183,113.169289 582.412592,114 585.125024,114 C587.837455,114 590.355864,113.169289 592.439715,111.748402 L592.439715,111.748402 Z M598.081149,102.075765 C598.110208,101.721019 598.125024,101.36224 598.125024,101 C598.125024,95.8114865 595.08541,91.3329127 590.689755,89.2478504 C590.941367,88.6255694 591.091627,87.9514545 591.120074,87.2459694 C596.420432,89.5595084 600.125024,94.8471273 600.125024,101 C600.125024,101.590537 600.090898,102.173104 600.024512,102.745836 C599.431016,102.417618 598.776005,102.187038 598.081149,102.075765 L598.081149,102.075765 Z M579.560292,89.2478504 C575.164637,91.3329127 572.125024,95.8114865 572.125024,101 C572.125024,101.36224 572.139839,101.721019 572.168898,102.075765 C571.474043,102.187038 570.819031,102.417618 570.225536,102.745836 C570.159149,102.173104 570.125024,101.590537 570.125024,101 C570.125024,94.8471273 573.829616,89.5595084 579.129974,87.2459694 C579.15842,87.9514545 579.30868,88.6255694 579.560292,89.2478504 L579.560292,89.2478504 Z" id="Shape" fill="#FFFFFF" fill-rule="nonzero"></path>
                <rect id="Rectangle-Copy-7" fill="#D71E25" x="650" y="0" width="130" height="250"></rect>
                <path d="M714.244,170.426 L714.244,169.488 L709.12,169.488 L709.12,166.786 L712.872,166.786 L712.872,160.374 L711.752,160.374 L711.752,162.614 L705.34,162.614 L705.34,160.374 L704.206,160.374 L704.206,166.786 L707.958,166.786 L707.958,169.488 L702.862,169.488 L702.862,170.426 L714.244,170.426 Z M711.752,165.862 L705.34,165.862 L705.34,163.552 L711.752,163.552 L711.752,165.862 Z M725.486,168.718 L725.486,164.252 L727.348,164.252 L727.348,163.3 L725.486,163.3 L725.486,159.478 L724.338,159.478 L724.338,168.718 L725.486,168.718 Z M719.256,166.548 C721.132,166.548 722.532,165.274 722.532,163.454 C722.532,161.634 721.132,160.36 719.256,160.36 C717.38,160.36 715.98,161.634 715.98,163.454 C715.98,165.274 717.38,166.548 719.256,166.548 Z M719.256,165.554 C718.024,165.554 717.1,164.686 717.1,163.454 C717.1,162.222 718.024,161.354 719.256,161.354 C720.488,161.354 721.412,162.222 721.412,163.454 C721.412,164.686 720.488,165.554 719.256,165.554 Z M726.046,171.756 L726.046,170.818 L718.822,170.818 L718.822,167.78 L717.674,167.78 L717.674,171.756 L726.046,171.756 Z" id="보안" fill="#FFFFFF" fill-rule="nonzero"></path>
                <mask id="mask-2" fill="white">
                    <use xlink:href="#path-1"></use>
                </mask>
                <g id="Background-Copy"></g>
                <path d="M715,83 L715,114.821429 L703,107.75 L703,83 L715,83 Z M715,85 L705,85 L705,106.607143 L715,112.5 L715,85 Z" id="Shape" fill="#FFFFFF" fill-rule="nonzero" mask="url(#mask-2)"></path>
                <polygon id="Shape" fill="#FFFFFF" fill-rule="nonzero" opacity="0.2" mask="url(#mask-2)" points="715 85 705 85 705 106.607143 715 112.5"></polygon>
                <path d="M727,83 L727,114.821429 L715,107.75 L715,83 L727,83 Z M727,85 L717,85 L717,106.607143 L727,112.5 L727,85 Z" id="Shape-Copy" fill="#FFFFFF" fill-rule="nonzero" mask="url(#mask-2)" transform="translate(721.000000, 98.910714) scale(-1, 1) translate(-721.000000, -98.910714) "></path>
            </g>
        </g>
    </g>
</svg>