<svg width="48" height="48" viewBox="0 0 48 48" xmlns="http://www.w3.org/2000/svg" xmlns:xlink="http://www.w3.org/1999/xlink">
    <defs>
        <path d="M14 0h20c7.732 0 14 6.268 14 14v20c0 7.732-6.268 14-14 14H14C6.268 48 0 41.732 0 34V14C0 6.268 6.268 0 14 0z" id="svg6690esa"/>
    </defs>
    <g fill="none" fill-rule="evenodd">
        <mask id="vkhcp5qrfb" fill="#fff">
            <use xlink:href="#svg6690esa"/>
        </mask>
        <use fill="#FFF" xlink:href="#svg6690esa"/>
        <g mask="url(#vkhcp5qrfb)">
            <path d="M16.492 34.969a6.002 6.002 0 0 1 7.624 1.372l36.445-21.042 1 1.732-38.105 22-.5-.866a4 4 0 1 0-6.928 4l.5.866-15.589 9-1-1.732 13.928-8.041a6.002 6.002 0 0 1 2.625-7.29z" fill="#55B6FF"/>
            <path d="m36.41 24.397.5.866-13.917 8.035a8.037 8.037 0 0 0-2.419-.913l13.647-7.879c-2.092-4.627-.373-10.176 4.117-12.77 4.491-2.592 10.157-1.306 13.118 2.82l6.105-3.525 1 1.732-7.794 4.5-.5-.866a8 8 0 1 0-13.857 8zM11.41 37.677a8.037 8.037 0 0 0-.419 2.551l-13.05 7.535-1-1.732 14.469-8.354z" fill="#299FFF"/>
            <path d="m14.268 31.474.474.82-19.053 11-.947-1.64L12.086 31.64c-4.04-8.034-.807-18.131 7.512-22.934 6.496-3.75 14.237-3.201 19.669.798a12.77 12.77 0 0 0-1.982 1.04c-4.774-3.082-11.256-3.363-16.74-.197-7.652 4.418-10.463 13.877-6.277 21.127zM49.643 9.956l5.72-3.303.948 1.641-4.922 2.842c-.544-.45-1.13-.844-1.746-1.18z" fill="#2E70BE"/>
        </g>
    </g>
</svg>
