<svg width="48" height="48" viewBox="0 0 48 48" xmlns="http://www.w3.org/2000/svg">
    <defs>
        <linearGradient x1="0%" y1="23.111%" x2="100%" y2="76.889%" id="mptiksx5za">
            <stop stop-color="#F540B7" offset="0%"/>
            <stop stop-color="#783BFE" offset="100%"/>
        </linearGradient>
    </defs>
    <g fill="none" fill-rule="evenodd">
        <path d="M14 0h20c7.732 0 14 6.268 14 14v20c0 7.732-6.268 14-14 14H14C6.268 48 0 41.732 0 34V14C0 6.268 6.268 0 14 0z" fill="#FFF"/>
        <path d="M9 16h30v19a3 3 0 0 1-3 3H12a3 3 0 0 1-3-3V16z" fill="url(#mptiksx5za)" fill-rule="nonzero"/>
        <path fill="#9713FE" d="M9 11h12l3 5H9z"/>
    </g>
</svg>
