<svg width="48" height="48" viewBox="0 0 48 48" xmlns="http://www.w3.org/2000/svg">
    <defs>
        <linearGradient x1="0%" y1="0%" x2="100%" y2="100%" id="h6tmzyjema">
            <stop stop-color="#2AC5FC" offset="0%"/>
            <stop stop-color="#3A28EF" offset="100%"/>
        </linearGradient>
        <linearGradient x1="1.035%" y1="23.528%" x2="100%" y2="77.031%" id="lr856txfyb">
            <stop stop-color="#969696" offset="0%"/>
            <stop stop-color="#747474" offset="100%"/>
        </linearGradient>
    </defs>
    <g fill="none" fill-rule="evenodd">
        <path d="M14 0h20c7.732 0 14 6.268 14 14v20c0 7.732-6.268 14-14 14H14C6.268 48 0 41.732 0 34V14C0 6.268 6.268 0 14 0z" fill="#FFF"/>
        <path d="M34.222 22h-4.444A7.778 7.778 0 0 0 22 29.778v4.444A7.778 7.778 0 0 0 29.778 42h4.444A7.778 7.778 0 0 0 42 34.222v-4.444A7.778 7.778 0 0 0 34.222 22z" fill="url(#h6tmzyjema)"/>
        <path d="M33 27v4h4v2h-4v4h-2v-4h-4v-2h4v-4h2z" fill="#FFF"/>
        <path d="M36 10a3 3 0 0 1 3 3l.001 7.936a8.935 8.935 0 0 0-2-.713L37 13a1 1 0 0 0-.883-.993L36 12H12a1 1 0 0 0-1 1v17h9v2H9V13a3 3 0 0 1 3-3zM5 33h15v2H6a1 1 0 0 1-1-1v-1z" fill="url(#lr856txfyb)"/>
    </g>
</svg>
