<?xml version="1.0" encoding="UTF-8"?>
<svg width="20px" height="20px" viewBox="0 0 20 20" version="1.1" xmlns="http://www.w3.org/2000/svg" xmlns:xlink="http://www.w3.org/1999/xlink">
    <title>084F445A-BBD4-4230-8DB8-0585D2078C27</title>
    <defs>
        <linearGradient x1="0%" y1="0%" x2="101.766435%" y2="100.768726%" id="linearGradient-1">
            <stop stop-color="#A7003B" offset="0%"></stop>
            <stop stop-color="#D70751" offset="99.9541614%"></stop>
        </linearGradient>
        <path d="M8.33333333,0 L11.6666667,0 C16.2690396,0 20,3.73096042 20,8.33333333 L20,11.6666667 C20,16.2690396 16.2690396,20 11.6666667,20 L8.33333333,20 C3.73096042,20 0,16.2690396 0,11.6666667 L0,8.33333333 C0,3.73096042 3.73096042,0 8.33333333,0 Z" id="path-2"></path>
        <filter x="-10.0%" y="-10.0%" width="120.0%" height="120.0%" filterUnits="objectBoundingBox" id="filter-3">
            <feMorphology radius="2" operator="erode" in="SourceAlpha" result="shadowSpreadInner1"></feMorphology>
            <feGaussianBlur stdDeviation="1" in="shadowSpreadInner1" result="shadowBlurInner1"></feGaussianBlur>
            <feOffset dx="0" dy="0" in="shadowBlurInner1" result="shadowOffsetInner1"></feOffset>
            <feComposite in="shadowOffsetInner1" in2="SourceAlpha" operator="arithmetic" k2="-1" k3="1" result="shadowInnerInner1"></feComposite>
            <feColorMatrix values="0 0 0 0 1   0 0 0 0 1   0 0 0 0 1  0 0 0 0.2 0" type="matrix" in="shadowInnerInner1"></feColorMatrix>
        </filter>
    </defs>
    <g id="구름-3.0" stroke="none" stroke-width="1" fill="none" fill-rule="evenodd">
        <g id="업데이트-관리자" transform="translate(-1881.000000, -1169.000000)">
            <g id="Write-feedback" transform="translate(1800.000000, 665.000000)">
                <g id="내용" transform="translate(25.000000, 75.000000)">
                    <g id="업데이트-종류" transform="translate(0.000000, 301.000000)">
                        <g id="Group" transform="translate(0.000000, 113.000000)">
                            <g id="launcher_ic/Debian" transform="translate(56.000000, 15.000000)">
                                <g id="Rectangle">
                                    <use fill="url(#linearGradient-1)" fill-rule="evenodd" xlink:href="#path-2"></use>
                                    <use fill="black" fill-opacity="1" filter="url(#filter-3)" xlink:href="#path-2"></use>
                                </g>
                                <g id="Openlogo-debianV2" transform="translate(3.679784, 2.083333)" fill="#FFFFFF">
                                    <path d="M6.03186246,0.00910868913 L6.12908612,0 L6.12908612,0 L5.94386533,0.100040491 C5.88286466,0.133109742 5.82283175,0.167732367 5.76445112,0.209401225 C5.98548972,0.155772989 6.09842845,0.162465059 6.20521602,0.178249816 L6.29761963,0.192811575 C6.39327246,0.207210487 6.50580639,0.217536421 6.69942235,0.191529417 C6.65695083,0.19780697 6.6122094,0.206798923 6.56950185,0.217165093 L6.48807379,0.239332627 C6.39921366,0.266405871 6.33704809,0.296096578 6.35625127,0.31137943 C6.55917509,0.335304593 6.69761565,0.317342705 6.81779777,0.294492868 L6.9901552,0.261177039 C7.10363506,0.242689029 7.22196887,0.237812622 7.39138142,0.28354692 L7.48055826,0.31080292 L7.44896034,0.160333823 C7.52624167,0.188739393 7.59673359,0.213452611 7.66202731,0.235502865 L7.84390511,0.294694119 L7.84390511,0.294694119 L8.15228236,0.389848576 C8.3944098,0.466533362 8.62592353,0.553848127 9.04572552,0.780466359 C9.11211577,0.783733249 9.16355682,0.774977504 9.20963778,0.762599555 L9.30832022,0.732180633 C9.40604835,0.702737104 9.51304983,0.686851553 9.7385509,0.780210133 L9.75027926,0.803063378 L9.75027926,0.803063378 L9.78399419,0.885934466 L9.78399419,0.885934466 L9.80062274,0.91530339 C9.80400588,0.920411987 9.80774784,0.925654673 9.81192808,0.93107225 L9.84290446,0.966002837 L9.84290446,0.966002837 L9.88821325,1.00708934 C9.90612866,1.02202843 9.92706844,1.03831994 9.9516682,1.05629026 L10.0370831,1.11556412 L10.0370831,1.11556412 L10.1482716,1.18686943 C10.1691627,1.19986507 10.1912866,1.21344363 10.2147228,1.22764591 C10.2421979,1.21656411 10.2176969,1.17561589 10.1711891,1.12334565 L10.1184557,1.06798824 L10.1184557,1.06798824 L9.99561448,0.951113305 L9.99561448,0.951113305 C10.9852841,1.4895736 12.0611242,2.63714868 12.3890628,3.86524299 L12.3415181,3.77948393 C12.3345028,3.76744846 12.3279265,3.75650398 12.3217659,3.74659375 L12.2896066,3.69908905 C12.2574759,3.65708658 12.2434483,3.66019856 12.2395774,3.68895388 L12.2385615,3.71942716 L12.2385615,3.71942716 L12.2470058,3.80715443 L12.2470058,3.80715443 L12.2698743,3.97029792 L12.2698743,3.97029792 L12.2766677,4.03957057 C12.2796251,4.09101527 12.2745452,4.12362277 12.2518447,4.11391095 C12.388748,4.48960327 12.5007885,4.87791475 12.5702158,5.27878133 L12.5075351,5.04973953 L12.5075351,5.04973953 L12.4523563,4.85713094 C12.3409978,4.48142929 12.172724,3.99621084 11.9338512,3.6441194 C11.9241058,3.75807399 11.8678595,3.76631605 11.8077376,3.75802955 L11.736459,3.74585982 C11.6518554,3.73499996 11.5968943,3.76721642 11.7154353,4.14350513 C11.7837597,4.24431917 11.8040487,4.22621741 11.8163352,4.19426591 L11.8302721,4.15501542 C11.8386053,4.1380233 11.8507247,4.13414711 11.8784921,4.17451754 L11.9064016,4.22068275 L11.9064016,4.22068275 L11.9436353,4.29287626 C11.9507101,4.30731956 11.9582427,4.32302889 11.9662674,4.34009502 C11.9677241,4.43335237 11.9835398,4.52636264 12.0048701,4.62454133 L12.0522632,4.82939453 C12.0687648,4.90104574 12.0850969,4.97659861 12.0986388,5.05765774 C12.075979,5.05385376 12.0517101,5.02271085 12.0273908,4.98385385 L11.9558403,4.86376543 C11.9272633,4.82044 11.9010429,4.79572512 11.8802229,4.82795055 C11.9548746,5.18474615 12.0776155,5.37070264 12.1244459,5.39805484 C12.119307,5.41084787 12.1124107,5.41559623 12.104706,5.41754776 L12.0801155,5.42025971 C12.0577881,5.42454161 12.0364591,5.4462529 12.0341211,5.58490812 C12.0520209,5.93405695 12.107687,5.97293134 12.1613186,5.95947819 L12.1929349,5.94719057 L12.1929349,5.94719057 L12.2127978,5.93813612 L12.2127978,5.93813612 L12.2310285,5.93267151 C12.2367705,5.9318559 12.2421461,5.93225002 12.2470609,5.93446532 C12.239088,5.97111427 12.2278778,6.00862869 12.2147181,6.04724714 L12.1226673,6.29411426 C12.0515365,6.49206318 11.9930816,6.72202915 12.064649,7.00574892 C12.0474968,6.93413357 12.0222877,6.862262 11.9949935,6.79133526 L11.9128279,6.58259061 L11.9128279,6.58259061 C11.9002559,6.69027413 11.9006375,6.7748312 11.9044823,6.85021877 L11.9149737,7.01025537 C11.9214511,7.13185257 11.9167365,7.25742555 11.8499675,7.46177484 L11.8170833,7.55375 L11.833809,7.49714126 C11.8501666,7.43737672 11.8638034,7.37886666 11.874814,7.32301558 L11.893362,7.21527485 C11.9311189,6.95686695 11.9048031,6.78834131 11.8262591,6.88525808 L11.8106697,6.90697355 C11.8347379,7.18128018 11.7444476,7.42773018 11.6401629,7.65138726 L11.5062718,7.92678562 C11.4363821,8.07325017 11.3812979,8.20919292 11.3775951,8.33645924 L11.3818317,8.41179263 L11.224031,8.19060498 L11.1468372,8.30911985 C11.1358293,8.32686237 11.1257071,8.34364641 11.116406,8.35954175 L11.0699334,8.44480728 C11.0197256,8.54576347 11.0137789,8.59877133 11.0189597,8.63954794 L11.0244139,8.66839513 L11.0244139,8.66839513 L11.0318345,8.70035508 C11.0416444,8.74963053 11.0401414,8.81070277 10.9548532,8.96169451 L10.925,9.01166667 L10.9433218,8.97719763 C10.9626819,8.93619873 10.9641129,8.91508872 10.9604204,8.89994587 L10.9499984,8.87349143 C10.9435552,8.85565934 10.9431808,8.83193572 10.9792294,8.76932093 L11.0061815,8.72573433 C10.9773846,8.72743583 10.9264343,8.76705838 10.8610739,8.8278 L10.7762199,8.90975177 L10.7762199,8.90975177 L10.5769042,9.10867041 L10.5769042,9.10867041 L10.468389,9.21273336 C10.4317288,9.24685721 10.3947451,9.28005879 10.3579336,9.3112628 L10.3029074,9.35643621 C9.19092962,10.2636787 7.86989764,10.406851 6.5821617,9.95629642 L6.45765417,9.91084661 L6.45583333,9.91416667 L6.45833094,9.90343397 C6.46093466,9.87879038 6.44963022,9.85099352 6.39851445,9.8099735 L6.3628604,9.78369414 L6.18918311,9.64614064 C6.10431853,9.57774797 6.02246269,9.50980988 5.94382993,9.44177934 L5.79092539,9.30543293 C5.0237784,8.59866476 4.61604484,7.84308579 4.80423933,6.43513218 C4.85188449,6.39854871 4.88982092,6.31657694 4.92820202,6.21184869 L4.9751226,6.07670012 C4.98319487,6.05283765 4.99144739,6.02842704 4.99996137,6.00364932 L5.05483271,5.85202633 C5.13391084,5.6478513 5.24012002,5.44335713 5.41504859,5.33124374 C5.64533325,4.81352243 6.3168363,4.33488204 7.050038,4.28648123 L7.14198211,4.28270025 C7.92626522,4.23875738 8.58799624,4.70854893 8.92046682,5.15182103 C8.33675273,4.59824794 7.39490366,4.41598991 6.57057953,4.78539486 L6.47949576,4.82871923 C5.61571429,5.224141 5.10347544,6.1925496 5.17812711,7.15673047 L5.18997584,7.14189635 L5.18997584,7.14189635 L5.22237679,7.11462923 C5.23543768,7.10117733 5.24642142,7.0788696 5.25416355,7.01939299 C5.22811324,8.8615453 7.17089754,10.2199825 8.6121636,9.60717872 L8.68625193,9.57371641 L8.70343566,9.6125988 C8.99684944,9.5310867 9.12462591,9.45674894 9.22702017,9.36925555 L9.29306184,9.30875454 L9.29306184,9.30875454 L9.39822448,9.20776615 C9.45043802,9.15959484 9.51302929,9.10659388 9.59831151,9.04697848 C9.5940493,9.05597387 9.5857304,9.06696154 9.5749978,9.07919749 L9.53720181,9.11890608 L9.53720181,9.11890608 L9.49478136,9.16164009 L9.46116122,9.19855684 C9.42704225,9.23974395 9.41550095,9.27220882 9.47601118,9.27354689 C9.54190251,9.25575421 9.65719863,9.1754511 9.79142562,9.06757595 L9.93083425,8.95180414 L9.93083425,8.95180414 L10.1487971,8.76066534 L10.1487971,8.76066534 L10.5327792,8.4115364 L10.5327792,8.4115364 C10.582088,8.30327264 10.5845723,8.25423626 10.5781055,8.21609165 L10.5664263,8.16100159 C10.5604768,8.12166483 10.5645129,8.06905201 10.616408,7.9548275 L10.6465191,7.89235716 L10.8708518,7.77827225 L10.9022256,7.68961957 L10.9022256,7.68961957 L11.0217371,7.37519997 C11.0752249,7.22527514 11.1146617,7.07572796 11.1191266,6.87908447 L11.118159,6.7766823 L10.98625,7.05666667 L11.0252728,6.91963936 C11.1007377,6.61441676 11.1066119,6.29841395 11.1007835,5.98994636 L11.0931981,5.68466887 C11.0907987,5.58419919 11.089243,5.48524511 11.090675,5.38848497 L11.0946809,5.25796292 L11.0410525,5.24329394 C10.9939074,3.83680183 9.79935487,2.34197559 8.7359148,1.83618419 C7.81963797,1.40540315 6.40874663,1.33160987 5.75702372,1.65612092 C5.78095926,1.63454663 5.82393131,1.61631127 5.87204393,1.59998633 L6.04942209,1.5449329 C6.10829947,1.52426156 6.13966073,1.50387105 6.09660698,1.47894019 C5.60676112,1.52850467 5.40452515,1.61393269 5.24014833,1.71186069 L5.03632917,1.83909104 C4.91887116,1.9086167 4.77198931,1.97937133 4.5216834,2.0444324 C4.45271243,2.1122135 4.49279279,2.11894925 4.56391664,2.10595929 L4.64249913,2.08792444 L4.64249913,2.08792444 L4.77237737,2.05358223 C4.77956364,2.05186997 4.78627711,2.05036763 4.79241078,2.04913188 L4.82139902,2.0453699 C4.84171748,2.0457139 4.83345841,2.05973615 4.77350838,2.09967949 L4.69547198,2.14871664 L4.69547198,2.14871664 C4.62285147,2.16910514 4.55694344,2.18020637 4.49437613,2.18801956 L4.3528621,2.20310585 C4.11522076,2.22841639 3.88907128,2.27577549 3.45862099,2.72913405 C3.46785279,2.74432615 3.48497183,2.74697027 3.50578155,2.74250232 L3.53923956,2.73114583 L3.53923956,2.73114583 L3.57508617,2.71319817 L3.57508617,2.71319817 L3.65449785,2.66624762 L3.65449785,2.66624762 L3.6739186,2.65733679 C3.68329055,2.6548616 3.68481263,2.66022312 3.67428827,2.67885727 L3.64894235,2.71744246 L3.64894235,2.71744246 L3.60237935,2.78001353 C3.59267591,2.79266736 3.58195728,2.80649047 3.57015789,2.82156781 C3.28688668,2.78578925 2.84435784,3.10452861 2.4330605,3.49661702 L2.28066003,3.64653926 C2.15549969,3.77342438 2.03571461,3.90404027 1.92711806,4.02980632 L1.80254474,4.1778485 C1.78280162,4.20195115 1.76359905,4.22572253 1.74498354,4.24909397 L1.64070724,4.38397436 C1.57638225,4.46996299 1.52293841,4.54735614 1.4833521,4.61176055 L1.45630717,4.65755983 L1.59648361,4.68215759 C1.5504715,4.79944534 1.50156647,4.90823148 1.45243636,5.01003597 L1.35466648,5.2047864 L1.35466648,5.2047864 L1.21726109,5.46791459 C1.11816491,5.661008 1.04205126,5.82988214 1.02281136,5.99384584 L1.01586985,6.08567468 L1.01586985,6.08567468 L0.987213768,6.38717293 L0.987213768,6.38717293 L0.927306351,6.94977817 L0.927306351,6.94977817 L0.904519905,7.18551461 L0.904519905,7.18551461 L0.885197338,7.42204257 C0.842771643,8.0113966 0.850267173,8.57492423 1.03853921,8.86327289 L1.07864275,8.91719969 L1.03879915,9.32158939 C1.08114477,9.40768154 1.11570107,9.49492671 1.15996747,9.57862275 L1.2081187,9.66096158 L1.11647213,9.66839215 L1.16801708,9.82652788 C1.17628963,9.85067697 1.18440853,9.87375501 1.19238198,9.8958106 L1.23854312,10.0162634 L1.23854312,10.0162634 L1.28160807,10.1145095 C1.36490471,10.2903498 1.43199064,10.3469436 1.49706456,10.3682514 L1.52949959,10.3763536 L1.52949959,10.3763536 L1.5619937,10.380907 L1.5619937,10.380907 L1.62042333,10.3873861 L1.62042333,10.3873861 L1.65364903,10.3938609 C1.65929367,10.3952745 1.66499665,10.396884 1.67076519,10.398732 L1.7062211,10.4130246 C1.77893793,10.4487034 1.8631791,10.5310487 1.97144138,10.7339574 L2.02763214,10.8458008 C2.03735018,10.8662299 2.04724949,10.8875818 2.05733732,10.9098992 L2.12018423,11.0557322 C2.13105502,11.0820829 2.14212878,11.1094845 2.15341275,11.1379801 L2.09758749,11.1171602 C2.03138984,11.0890526 1.95983176,11.0416389 1.86588424,10.9125006 C1.85237224,11.0305186 2.01728123,11.3695623 2.22340872,11.6552197 L2.26815979,11.7155149 L2.17235891,11.8269095 C2.24796733,11.9666555 2.32004081,12.04091 2.38448698,12.09554 L2.4749242,12.1685003 C2.48422349,12.1762457 2.49325408,12.184083 2.50199701,12.1922246 C2.36267808,12.1148375 2.3441266,12.1587856 2.3891643,12.2627151 L2.41671753,12.3193943 L2.41671753,12.3193943 L2.45328067,12.3843662 L2.45328067,12.3843662 L2.52154459,12.4936445 L2.52154459,12.4936445 L2.6011467,12.6119949 L2.6011467,12.6119949 L2.78329028,12.8670987 L2.78329028,12.8670987 L2.97316359,13.1266014 L2.97316359,13.1266014 L3.00942101,13.1790753 L3.00942101,13.1790753 L3.02027849,13.196569 L3.09253828,13.065445 C3.08289331,13.2394032 3.20416605,13.4598642 3.43427628,13.7582163 L3.4940585,13.8344452 L3.71769879,13.8254773 C3.80376431,13.9986182 4.10312351,14.3019416 4.30892593,14.3544269 L4.35148263,14.3616956 L4.21552344,14.5423354 C4.39513749,14.6002234 4.47956359,14.6444656 4.54047452,14.6872643 L4.66112516,14.7812134 C4.72501075,14.8281758 4.81657602,14.8824107 5.00749377,14.9561206 L5.09560743,14.9889384 L4.96833452,14.760064 C5.04256011,14.8256087 5.10495965,14.8892602 5.16261966,14.9510767 L5.27371998,15.0722801 C5.4190271,15.2306686 5.56422604,15.3762841 5.84369771,15.5102315 C6.09547399,15.5996034 6.25990404,15.6390725 6.40794447,15.6663023 L6.70319666,15.7156019 C6.8346332,15.7386434 6.98753834,15.7706219 7.20297491,15.8333333 L6.6345037,15.8176276 C6.24932329,15.802942 5.86690309,15.7706432 5.57819962,15.665633 C2.62379379,14.8514728 -0.0790875409,11.324449 0.118619784,7.69185981 L0.110405765,7.50469263 L0.110405765,7.50469263 L0.107590293,7.31306905 C0.107493618,7.28093782 0.107563902,7.24875394 0.107772154,7.21658395 L0.11258881,6.92922493 L0.11258881,6.92922493 L0.12441689,6.48122875 L0.12441689,6.48122875 L0.126419563,6.32217076 L0.126419563,6.32217076 L0.124775741,6.17941119 C0.120189671,6.0236075 0.105317604,5.90759888 0.0702157942,5.85420232 L0.18416812,5.47744256 L0.18416812,5.47744256 L0.269202669,5.20727836 C0.404069538,4.79056042 0.575229559,4.32208137 0.828251234,3.79996925 L0.824070407,3.79126111 L0.824070407,3.79126111 L0.839767668,3.80418276 C0.873766791,3.82560615 0.959678453,3.84335696 1.09311988,3.61202701 C1.19020482,3.39500304 1.27298886,3.16035068 1.3805638,2.9401782 L1.46650411,2.77826551 L1.54512125,2.75962502 C1.58091354,2.54815069 1.80460168,2.28536485 2.065594,2.02787055 L2.22546115,1.87446178 L2.22546115,1.87446178 L2.61686205,1.51432591 L2.61686205,1.51432591 L2.75114106,1.38675797 C2.79237317,1.34633375 2.82967615,1.30815891 2.86184526,1.27268626 L2.90609794,1.22156053 L2.92630299,1.3587699 C3.36743864,0.93780153 4.04580803,0.612265578 4.63605337,0.354810753 L5.22935453,0.0996431704 C5.27327568,0.080410627 5.31549074,0.0616585399 5.35575528,0.0433663596 C5.30843392,0.0966717507 5.31729544,0.118639598 5.36325236,0.122104033 L5.4112834,0.120841438 L5.4112834,0.120841438 L5.47481249,0.112311977 L5.47481249,0.112311977 L5.8304866,0.0414460659 L5.8304866,0.0414460659 L5.93143891,0.0235227211 L5.93143891,0.0235227211 L6.03186246,0.00910868913 L6.03186246,0.00910868913 Z M4.99791823,8.94929207 C5.03406138,8.95729916 5.09328983,9.01495015 5.16736966,9.0977767 L5.42592929,9.39731467 C5.59791681,9.59299143 5.79134481,9.79095951 5.95819297,9.84851948 C5.74997399,9.67864122 5.58890011,9.46251404 5.43959678,9.24004526 C5.72089383,9.56916838 6.06305779,9.83801419 6.4366938,10.0160277 C6.429776,9.98936407 6.43543363,9.96885681 6.44273879,9.95025766 L6.4525,9.92541667 L6.45421569,9.93733088 C6.47967665,10.0073771 6.68731084,10.1711654 6.86374089,10.2716636 L6.90707483,10.2953788 C7.41251572,10.4854989 7.98404788,10.4929935 8.43384621,10.4761466 C7.46167504,10.8898886 5.60513968,10.0558068 4.99791823,8.94929207 Z M4.65354913,8.92931077 L4.68248501,8.75 L4.75107837,8.90862144 L4.75107837,8.90862144 L4.81207135,9.0406471 L4.81207135,9.0406471 L4.95216015,9.32385599 C4.99066715,9.40204606 5.02866427,9.48286228 5.07021579,9.58333333 C4.9711787,9.48136588 4.89357227,9.35691327 4.81992876,9.22637461 L4.71025224,9.02805196 L4.71025224,9.02805196 L4.65354913,8.92931077 Z M12.1533353,7.08333333 C12.0945294,7.66016993 11.9539298,8.2295116 11.7368825,8.75 C11.9089299,8.31836052 12.0286684,7.85703837 12.0957041,7.38821731 L12.1212059,7.18689955 L12.1533353,7.08333333 Z M7.98688246,8.33333333 C7.9015725,8.47022612 7.80575848,8.61095142 7.70015014,8.75 C7.66830085,8.74172615 7.63668814,8.73242264 7.60566317,8.72231453 L7.51470269,8.6898014 C7.4852044,8.67830911 7.45664502,8.66623725 7.42937573,8.65381089 L7.35178929,8.61569328 C7.15708574,8.51241044 7.06742274,8.40084156 7.26259945,8.3962106 C7.50674776,8.43369742 7.74883785,8.4316614 7.98688246,8.33333333 Z M9.23688246,7.08333333 C9.20157633,7.3756361 9.10163539,7.65849255 8.96437721,7.91666667 C8.9688974,7.85699231 8.94333063,7.83636473 8.91252223,7.82265975 L8.87092724,7.80585335 L8.85204568,7.79549349 C8.81398191,7.76941153 8.79800154,7.71506605 8.87396344,7.54213186 L8.9158056,7.45356668 L8.9158056,7.45356668 L8.97223093,7.34618707 L8.97223093,7.34618707 L9.0447657,7.21801962 L9.0447657,7.21801962 L9.03960942,7.24159298 L9.03960942,7.24159298 L9.02334007,7.2948695 L9.02334007,7.2948695 L9.00086296,7.35435683 L9.00086296,7.35435683 L8.87870558,7.63577203 L8.87870558,7.63577203 L8.85929293,7.68732779 C8.82977901,7.77422908 8.83718079,7.81527633 8.93921718,7.74517453 L9.00460555,7.69552168 C9.01718347,7.68527821 9.03063021,7.67401804 9.04498916,7.66169211 C9.12319895,7.4717753 9.20610132,7.29176189 9.23688246,7.08333333 Z M9.16689383,6.44114593 L9.17841817,6.39442951 L9.17841817,6.39442951 L9.19238364,6.35102504 L9.19238364,6.35102504 L9.20805635,6.31293325 C9.21076997,6.3071385 9.21352415,6.30164848 9.2163036,6.29650486 L9.23316122,6.27013354 C9.26981305,6.22344732 9.30556785,6.24939298 9.30683631,6.43954676 L9.3048507,6.53930325 C9.30407088,6.55798378 9.30305641,6.57771932 9.30179202,6.59855155 C9.28407891,6.67707907 9.2675511,6.67868947 9.25124782,6.64849309 L9.23730614,6.6158732 L9.23730614,6.6158732 L9.20778846,6.5247449 C9.19469901,6.48455466 9.18122281,6.44939462 9.16689383,6.44114593 Z M0.140431588,4.58333333 L0.09522702,4.76146496 C0.0773073758,4.82789907 0.0530435097,4.90440042 0.0119571205,5 C0.0167526526,4.97005976 0.0156841521,4.94423173 0.0127223704,4.92030808 L0.00212793332,4.85204241 C-0.00620484434,4.78507422 0.00415961074,4.71537498 0.140431588,4.58333333 Z M0.242083333,3.35333333 L0.246389927,3.36300539 C0.257502803,3.38071821 0.28129746,3.38507597 0.309786711,3.38403116 L0.364412293,3.37803346 L0.364412293,3.37803346 L0.418826807,3.37067264 C0.497940054,3.36350635 0.538715479,3.38880101 0.365818384,3.62112978 L0.175476228,3.70361103 L0.175476228,3.70361103 L0.0768322383,3.74840456 C0.0719588834,3.75024888 0.0699442807,3.75048438 0.0702449274,3.74916198 L0.135184469,3.68020735 L0.135184469,3.68020735 L0.165428402,3.64130765 C0.211022252,3.57690239 0.253973238,3.48559011 0.244754693,3.37201127 L0.242083333,3.35333333 Z" id="Shape"></path>
                                </g>
                            </g>
                        </g>
                    </g>
                </g>
            </g>
        </g>
    </g>
</svg>