<svg width="48" height="48" viewBox="0 0 48 48" xmlns="http://www.w3.org/2000/svg">
    <defs>
        <linearGradient x1="0%" y1="0%" x2="100%" y2="100%" id="lov2cmdnla">
            <stop stop-color="#F540B7" offset="0%"/>
            <stop stop-color="#783BFE" offset="100%"/>
        </linearGradient>
    </defs>
    <g fill="none" fill-rule="evenodd">
        <path d="M14 0h20c7.732 0 14 6.268 14 14v20c0 7.732-6.268 14-14 14H14C6.268 48 0 41.732 0 34V14C0 6.268 6.268 0 14 0z" fill="#FFF"/>
        <path d="M36.49 23.5h-6.177l6.539 9.2.395-.648A15.416 15.416 0 0 0 39.5 24c0-8.56-6.94-15.5-15.5-15.5-4.58 0-8.835 1.998-11.762 5.404l-.255.297 1.812 2.549.414-.521A12.474 12.474 0 0 1 24 11.5c6.736 0 12.228 5.328 12.49 12zm-18.803 1-6.539-9.2-.395.648A15.416 15.416 0 0 0 8.5 24c0 8.56 6.94 15.5 15.5 15.5 4.58 0 8.835-1.998 11.762-5.404l.255-.297-1.812-2.549-.414.521A12.474 12.474 0 0 1 24 36.5c-6.736 0-12.228-5.328-12.49-12h6.177z" fill="url(#lov2cmdnla)" fill-rule="nonzero"/>
    </g>
</svg>
