<svg xmlns="http://www.w3.org/2000/svg" width="24" height="24" viewBox="0 0 24 24">
    <g fill="#FFF" fill-rule="evenodd">
        <path fill-rule="nonzero" d="M6.188 19.248l-.036-.015L10 16.004V19c4.97 0 9-4.03 9-9 0-3.106-1.573-5.844-3.966-7.462l.793-.666C18.354 3.687 20 6.652 20 10c0 5.523-4.477 10-10 10-1.35 0-2.637-.267-3.812-.752zM13.812.752l.036.015L10 3.996V1c-4.97 0-9 4.03-9 9 0 3.106 1.573 5.844 3.966 7.462l-.793.666C1.646 16.313 0 13.348 0 10 0 4.477 4.477 0 10 0c1.35 0 2.637.267 3.812.752z" transform="translate(2 2)"/>
        <path d="M5 9L15 9 15 10.4 5 10.4z" transform="translate(2 2)"/>
    </g>
</svg>
