<svg width="32" height="32" viewBox="0 0 48 48" xmlns="http://www.w3.org/2000/svg">
    <defs>
        <linearGradient x1="0%" y1="11.719%" x2="100%" y2="88.281%" id="rgxr6zohha">
            <stop stop-color="#5FEF34" offset="0%"/>
            <stop stop-color="#048820" offset="100%"/>
        </linearGradient>
    </defs>
    <g fill="none" fill-rule="evenodd">
        <path d="M14 0h20c7.732 0 14 6.268 14 14v20c0 7.732-6.268 14-14 14H14C6.268 48 0 41.732 0 34V14C0 6.268 6.268 0 14 0z" fill="#FFF"/>
        <path d="M2.286 0h27.428C30.977 0 32 1.045 32 2.333v23.334C32 26.955 30.977 28 29.714 28H2.286C1.023 28 0 26.955 0 25.667V2.333C0 1.045 1.023 0 2.286 0z" transform="translate(8 10)" fill="url(#rgxr6zohha)"/>
        <path d="M21.047 24.209a1 1 0 0 1 .218.218l2.695 3.693-5.955 8.16H11l8.65-11.853a1 1 0 0 1 1.397-.218zm12.916-4.34a1 1 0 0 1 .202.203L38 25.203V36.28H20.45l12.113-16.208a1 1 0 0 1 1.4-.203z" fill="#FFF"/>
    </g>
</svg>
