<svg xmlns="http://www.w3.org/2000/svg" width="32" height="32" viewBox="0 0 32 32">
    <defs>
        <linearGradient id="d5jyue8msa" x1="0%" x2="101.44%" y1="0%" y2="100.446%">
            <stop offset="0%" stop-color="#CA0000"/>
            <stop offset="99.954%" stop-color="#7A47C2"/>
        </linearGradient>
    </defs>
    <g fill="none" fill-rule="evenodd">
        <path fill="url(#d5jyue8msa)" d="M10.667 0h10.666C27.224 0 32 4.776 32 10.667v10.666C32 27.224 27.224 32 21.333 32H10.667C4.776 32 0 27.224 0 21.333V10.667C0 4.776 4.776 0 10.667 0z"/>
        <path fill="#FFF" fill-rule="nonzero" d="M6.857 8c-.099 0-.19.093-.19.222v15.556c0 .129.091.222.19.222h18.286c.099 0 .19-.093.19-.222V8.222c0-.129-.091-.222-.19-.222H6.857zm0-1.333h18.286c.841 0 1.524.696 1.524 1.555v15.556c0 .859-.683 1.555-1.524 1.555H6.857c-.841 0-1.524-.696-1.524-1.555V8.222c0-.859.683-1.555 1.524-1.555z"/>
        <path fill="#FFF" d="M11.658 22.667H7.333l5.838-8 2.162 2.963-3.675 5.037zm-.991 1H7.333h3.334zM24 15.829L24 22.667 13.167 22.667 21.138 12z"/>
    </g>
</svg>
