<svg width="48" height="48" viewBox="0 0 48 48" xmlns="http://www.w3.org/2000/svg">
    <defs>
        <linearGradient x1="14.03%" y1="0%" x2="85.97%" y2="100%" id="qyd6ns745a">
            <stop stop-color="#FFA919" offset="0%"/>
            <stop stop-color="#EE006B" offset="100%"/>
        </linearGradient>
    </defs>
    <g fill="none" fill-rule="evenodd">
        <path d="M14 0h20c7.732 0 14 6.268 14 14v20c0 7.732-6.268 14-14 14H14C6.268 48 0 41.732 0 34V14C0 6.268 6.268 0 14 0z" fill="#FFF"/>
        <path d="M18.57 12.857 1.515 23.091A1 1 0 0 1 0 22.234V1.766A1 1 0 0 1 1.514.91l17.057 10.234a1 1 0 0 1 0 1.714z" transform="translate(15 12)" fill="url(#qyd6ns745a)"/>
    </g>
</svg>
