<svg xmlns="http://www.w3.org/2000/svg" width="48" height="48" viewBox="0 0 48 48">
    <defs>
        <linearGradient id="mb8in3bnqa" x1="0%" x2="101.673%" y1="0%" y2="100.676%">
            <stop offset="0%" stop-color="#107507"/>
            <stop offset="99.954%" stop-color="#47C292"/>
        </linearGradient>
    </defs>
    <g fill="none" fill-rule="evenodd">
        <path fill="url(#mb8in3bnqa)" d="M16 0h16c8.837 0 16 7.163 16 16v16c0 8.837-7.163 16-16 16H16C7.163 48 0 40.837 0 32V16C0 7.163 7.163 0 16 0z"/>
        <path fill="#FFF" fill-rule="nonzero" d="M38.46 28c.352-1.273.54-2.615.54-4 0-8.284-6.716-15-15-15-4.553 0-8.631 2.028-11.382 5.23l1.2 1.688C16.197 12.92 19.874 11 24 11c7.18 0 13 5.82 13 13h-5.719l5.539 7.792c.712-1.168 1.268-2.442 1.64-3.792zM11 24h5.719l-5.539-7.792C10.468 17.376 9.912 18.65 9.54 20 9.187 21.273 9 22.615 9 24c0 8.284 6.716 15 15 15 4.553 0 8.631-2.028 11.382-5.23l-1.2-1.688C31.803 35.08 28.126 37 24 37c-7.18 0-13-5.82-13-13z"/>
    </g>
</svg>
