<svg xmlns="http://www.w3.org/2000/svg" xmlns:xlink="http://www.w3.org/1999/xlink" width="24" height="24" viewBox="0 0 24 24">
    <defs>
        <path id="a" d="M4 0h16a4 4 0 0 1 4 4v16a4 4 0 0 1-4 4H4a4 4 0 0 1-4-4V4a4 4 0 0 1 4-4z"/>
    </defs>
    <g fill="none" fill-rule="evenodd">
        <rect width="24" height="24" fill="#FFF" rx="8"/>
        <mask id="b" fill="#fff">
            <use xlink:href="#a"/>
        </mask>
        <path stroke="#D3D3D3" d="M4 .5A3.5 3.5 0 0 0 .5 4v16A3.5 3.5 0 0 0 4 23.5h16a3.5 3.5 0 0 0 3.5-3.5V4A3.5 3.5 0 0 0 20 .5H4z"/>
        <g mask="url(#b)">
            <path fill="#55B6FF" d="M11.808 21L30.03 10.48l.5.866-19.052 11-.25-.433a2 2 0 0 0-3.464 2l.25.433-7.794 4.5-.5-.866 6.964-4.021A3 3 0 0 1 11.808 21z"/>
            <path fill="#299FFF" d="M25.728 10.077l3.052-1.762.5.866-3.897 2.25-.25-.433a4 4 0 1 0-6.928 4l-.866.5a5 5 0 0 1 8.389-5.421z"/>
            <path fill="#2E70BE" d="M19.405 7.44a6.054 6.054 0 0 0-.992.518A8 8 0 0 0 6.996 18.582l-.866.5A9 9 0 0 1 19.405 7.442z"/>
            <path fill="#299FFF" d="M5.704 21.637c-.137.41-.208.841-.209 1.276l-6.525 3.768-.5-.866 7.234-4.178zm4.583-2.645l7.668-4.427.5.866-6.958 4.017a4.018 4.018 0 0 0-1.21-.456z"/>
            <path fill="#2E70BE" d="M6.746 18.15l.5.866-9.526 5.5-.5-.866 9.526-5.5zM24.67 7.8l2.86-1.65.5.866-2.46 1.42a5.97 5.97 0 0 0-.9-.635z"/>
            <path fill="#FFF" fill-opacity=".5" d="M3.47 34.475l30.31-17.5.5.866-30.31 17.5z"/>
        </g>
        <path fill="#4A4A4A" d="M8 2h8a1 1 0 0 1 0 2H8a1 1 0 1 1 0-2z"/>
    </g>
</svg>
