<svg xmlns="http://www.w3.org/2000/svg" width="24" height="24" viewBox="0 0 24 24">
    <defs>
        <linearGradient id="a" x1="0%" x2="102%" y1="0%" y2="101%">
            <stop offset="0%" stop-color="#3023AE"/>
            <stop offset="100%" stop-color="#954FD2"/>
        </linearGradient>
    </defs>
    <g fill="none" fill-rule="evenodd">
        <path fill="url(#a)" d="M8 0h8a8 8 0 0 1 8 8v8a8 8 0 0 1-8 8H8a8 8 0 0 1-8-8V8a8 8 0 0 1 8-8z"/>
        <path fill="#FFF" d="M8.5 9v9a.5.5 0 0 0 .5.5h6a.5.5 0 0 0 .5-.5V9h1v9a1.5 1.5 0 0 1-1.5 1.5H9A1.5 1.5 0 0 1 7.5 18V9h1zM10 7V5.785c0-.503.07-.773.2-1.018.131-.244.323-.436.567-.567.245-.13.515-.2 1.018-.2h.43c.503 0 .773.07 1.018.2.244.131.436.323.567.567.13.245.2.515.2 1.018V7h3.5a.5.5 0 1 1 0 1h-11a.5.5 0 0 1 0-1H10zm1 0h2V5.5a.5.5 0 0 0-.5-.5h-1a.5.5 0 0 0-.5.5V7z"/>
    </g>
</svg>
