<svg xmlns="http://www.w3.org/2000/svg" width="48" height="48" viewBox="0 0 48 48">
    <defs>
        <linearGradient id="zfn45wln9a" x1="0%" x2="101.58%" y1="0%" y2="100.584%">
            <stop offset="0%" stop-color="#58009D"/>
            <stop offset="99.954%" stop-color="#C24747"/>
        </linearGradient>
    </defs>
    <g fill="none" fill-rule="evenodd">
        <g>
            <g>
                <path fill="url(#zfn45wln9a)" d="M16 0h16c8.837 0 16 7.163 16 16v16c0 8.837-7.163 16-16 16H16C7.163 48 0 40.837 0 32V16C0 7.163 7.163 0 16 0z" transform="translate(-572 -1728) translate(572 1728)"/>
                <path fill="#FFF" d="M22.667 32h2.666v3h-2.666v-3zm-2-11.333H18v-1.334C18 16.388 20.388 14 23.333 14h1.334C27.612 14 30 16.388 30 19.333v1.133c0 2.23-1.077 4.323-2.892 5.619-1.114.796-1.775 2.08-1.775 3.45V30h-2.666v-.466c0-2.23 1.077-4.323 2.891-5.619 1.114-.796 1.775-2.08 1.775-3.45v-1.132c0-1.472-1.194-2.666-2.666-2.666h-1.334c-1.472 0-2.666 1.194-2.666 2.666v1.334z" transform="translate(-572 -1728) translate(572 1728)"/>
                <path fill="#FFF" fill-rule="nonzero" d="M24 39c8.284 0 15-6.716 15-15 0-8.284-6.716-15-15-15-8.284 0-15 6.716-15 15 0 8.284 6.716 15 15 15zm0 2c-9.389 0-17-7.611-17-17S14.611 7 24 7s17 7.611 17 17-7.611 17-17 17z" transform="translate(-572 -1728) translate(572 1728)"/>
            </g>
        </g>
    </g>
</svg>
